<?xml version="1.0" standalone="no"?>
<!DOCTYPE svg PUBLIC "-//W3C//DTD SVG 1.1//EN" "http://www.w3.org/Graphics/SVG/1.1/DTD/svg11.dtd" >
<!--
2013-9-30: Created.
-->
<svg>
<metadata>
Created by iconfont
</metadata>
<defs>

<font id="iconfont" horiz-adv-x="1024" >
  <font-face
    font-family="iconfont"
    font-weight="500"
    font-stretch="normal"
    units-per-em="1024"
    ascent="896"
    descent="-128"
  />
    <missing-glyph />
    
    <glyph glyph-name="fill-star" unicode="&#58922;" d="M487.579 829.272l132.725-268.916 296.766-43.139-214.746-209.32 50.695-295.574-265.44 139.552-265.438-139.552 50.692 295.574-214.744 209.32 296.765 43.139z"  horiz-adv-x="1024" />

    
    <glyph glyph-name="question" unicode="&#58919;" d="M464 111.648c0-26.51 21.49-48 48-48s48 21.49 48 48c0 26.51-21.49 48-48 48-26.51 0-48-21.49-48-48zM512-64c-247.040 0-448 200.96-448 448s200.96 448 448 448 448-200.96 448-448-200.96-448-448-448zM512 767.712c-211.584 0-383.712-172.128-383.712-383.712 0-211.552 172.128-383.712 383.712-383.712 211.552 0 383.712 172.16 383.712 383.712 0 211.584-172.16 383.712-383.712 383.712zM512 222.304c-17.664 0-32 14.336-32 32v54.112c0 52.352 40 92.352 75.328 127.648 25.888 25.92 52.672 52.672 52.672 74.016 0 53.344-43.072 96.736-96 96.736-53.824 0-96-41.536-96-94.56 0-17.664-14.336-32-32-32s-32 14.336-32 32c0 87.424 71.776 158.56 160 158.56s160-72.096 160-160.736c0-47.904-36.32-84.192-71.424-119.296-27.84-27.776-56.576-56.512-56.576-82.336v-54.112c0-17.664-14.336-32.032-32-32.032z"  horiz-adv-x="1024" />

    
    <glyph glyph-name="unfold" unicode="&#58892;" d="M528.154 133.26c0.746 0.64 1.462 1.334 2.144 2.08l423.406 464.14c8.96 9.822 8.274 25.06-1.53 34.038-9.806 8.976-25.02 8.288-33.98-1.534L511.14 185.76800000000003 105.88 634.0799999999999c-8.918 9.864-24.126 10.62-33.972 1.688-9.846-8.932-10.6-24.166-1.684-34.03l422.894-467.814c8.914-9.864 24.124-10.62 33.97-1.688 0.368 0.334 0.722 0.676 1.066 1.026z"  horiz-adv-x="1024" />

    
    <glyph glyph-name="star" unicode="&#58923;" d="M511.974 770.264l131.071-241.026 269.694-50.113-188.718-199.136 35.668-272.019-247.716 118.010-247.666-118.010 35.663 272.056-188.721 199.1 269.733 50.159 130.99 240.98zM511.974 708.157l-111.665-203.567-229.931-42.364 160.881-168.196-30.399-229.807 211.115 99.694 211.157-99.694-30.402 229.766 160.866 168.237-229.888 42.331-111.734 203.6z"  horiz-adv-x="1024" />

    
    <glyph glyph-name="fold" unicode="&#58896;" d="M495.846 634.74c-0.746-0.64-1.462-1.334-2.144-2.08L70.296 168.51999999999998c-8.96-9.822-8.274-25.06 1.53-34.038 9.806-8.976 25.02-8.288 33.98 1.534L512.86 582.232 918.12 133.91999999999996c8.918-9.864 24.126-10.62 33.972-1.688 9.846 8.932 10.6 24.166 1.684 34.03L530.882 634.078c-8.914 9.864-24.124 10.62-33.97 1.688a24.44 24.44 0 0 1-1.066-1.026z"  horiz-adv-x="1024" />

    
    <glyph glyph-name="add" unicode="&#58890;" d="M487.814 408.186h-400c-13.256 0-24-10.744-24-24 0-13.254 10.744-24 24-24h400v-400c0-13.254 10.744-24 24-24 13.254 0 24 10.746 24 24v400h400c13.254 0 24 10.746 24 24 0 13.256-10.746 24-24 24h-400v400c0 13.256-10.746 24-24 24-13.256 0-24-10.744-24-24v-400z"  horiz-adv-x="1024" />

    
    <glyph glyph-name="danmu-close" unicode="&#58921;" d="M960 382.692C960 240.92399999999998 845.076 126 703.308 126H322.41C180.644 126 65.72 240.92399999999998 65.72 382.692s114.926 256.692 256.692 256.692h380.898C845.076 639.384 960 524.46 960 382.692zM330.69 614.5419999999999c-128.046 0-231.85-103.802-231.85-231.85s103.804-231.85 231.85-231.85c128.048 0 231.852 103.802 231.852 231.85s-103.804 231.85-231.852 231.85z"  horiz-adv-x="1024" />

    
    <glyph glyph-name="danmu-open" unicode="&#58924;" d="M64 383.308C64 525.076 178.924 640 320.692 640h380.898c141.766 0 256.692-114.924 256.692-256.692s-114.926-256.692-256.692-256.692H320.692C178.924 126.61599999999999 64 241.53999999999996 64 383.308z m629.31-231.85c128.046 0 231.85 103.802 231.85 231.85s-103.804 231.85-231.85 231.85c-128.048 0-231.852-103.802-231.852-231.85s103.804-231.85 231.852-231.85z"  horiz-adv-x="1024" />

    
    <glyph glyph-name="wrong" unicode="&#58914;" d="M878.706381 23.399311l-1.612731 1.612731c-0.013303 0.013303-0.024559 0.024559-0.036839 0.036839L602.241792 299.8639l274.184663 273.821389c0.64059 0.613984 1.267876 1.239224 1.882883 1.87879l0.717338 0.717338-0.01842 0.017396c10.629081 11.420097 17.140379 26.722618 17.140379 43.553958 0 35.322483-28.634154 63.956637-63.956637 63.956637-16.830317 0-32.133861-6.511297-43.553958-17.140379l-0.038886 0.038886-1.616824-1.616824c-0.010233-0.00921-0.019443-0.019443-0.028653-0.028653L511.999488 390.106204l-269.508153 269.508153c-11.707646 14.931061-29.897937 24.535813-50.342572 24.535813-35.322483 0-63.956637-28.634154-63.956637-63.956637 0-16.050558 5.925966-30.707372 15.691377-41.937135l-0.013303-0.013303 0.187265-0.187265c1.835811-2.093684 3.804652-4.065596 5.895267-5.903453L421.81756 299.924275l-269.436522-269.437545c-14.927991-11.707646-24.530696-29.895891-24.530696-50.338479 0-35.322483 28.634154-63.956637 63.956637-63.956637 16.050558 0 30.708396 5.925966 41.938158 15.692401l0.013303-0.013303 0.187265 0.187265c2.092661 1.834788 4.063549 3.802606 5.901407 5.89322L511.940137 209.681972l273.726222-274.091542c0.624217-0.652869 1.261737-1.291412 1.913583-1.916653l0.700965-0.701988 0.017396 0.017396c11.420097-10.628058 26.722618-17.139356 43.553958-17.139356 35.322483 0 63.956637 28.634154 63.956637 63.956637 0 16.83134-6.511297 32.133861-17.140379 43.553958L878.706381 23.399311z"  horiz-adv-x="1024" />

    
    <glyph glyph-name="correct" unicode="&#58906;" d="M927.948 607.149c0 35.322-28.634 63.957-63.957 63.957-16.052 0-30.708-5.926-41.937-15.691l-0.014 0.013-0.189-0.189c-2.125-1.864-4.125-3.866-5.988-5.994l-397.964-398.364-204.904 201.268c-11.566 16.499-30.714 27.296-52.392 27.296-35.322 0-63.957-28.634-63.957-63.957 0-15.994 5.884-30.604 15.589-41.818l-0.478-0.478 262.889-258.927c5.483-5.156 11.865-9.367 18.903-12.343 7.652-3.238 16.065-5.026 24.895-5.026 18.886 0 35.855 8.191 47.562 21.208l437.525 438.796c14.862 11.711 24.417 29.859 24.417 50.25z"  horiz-adv-x="1024" />

    
    <glyph glyph-name="sanjiaoxing" unicode="&#58944;" d="M191.814654 428.019699 832.184323 428.019699 512 44.003582Z"  horiz-adv-x="1024" />

    
    <glyph glyph-name="refresh" unicode="&#58937;" d="M512 696v-73.656a6 6 0 0 1 9.706-4.718l124.29 97.656a6 6 0 0 1 0 9.436l-124.29 97.656a6 6 0 0 1-9.706-4.72V744C288.876 744 108 563.124 108 340s180.876-404 404-404 404 180.876 404 404c0 13.254-10.746 24-24 24s-24-10.746-24-24c0-196.614-159.386-356-356-356S156 143.38599999999997 156 340s159.386 356 356 356z"  horiz-adv-x="1216" />

    
    <glyph glyph-name="zan1" unicode="&#58970;" d="M822.136 544.02S872 548.02 872 498.024c0 0 0-71.994-73.754-313.972 0 0-22.848-70.998-50.896-70.998H449.236c-20.774 0-73.746 13.502-73.746 50.996V544.022s147.496 104.994 147.496 238.982c4.156 7-7.27 48.996 47.78 48.996 0 0 129.844-13.998 52.976-287.98h198.394z m-526.404-1.176s30.188 0.374 30.188-29.06v-385.66s0.194-16.124-21.23-16.124H201.86s-25.316 0-25.316 24.376L152 519.596s0.388 23.248 24.93 23.248h118.8z"  horiz-adv-x="1024" />

    
    <glyph glyph-name="buzan" unicode="&#58973;" d="M202.048 224.592s-49.684-3.998-49.684 46.016c0 0 0 72.018 73.486 314.08 0 0 22.768 71.024 50.712 71.024h297.034c20.7 0 73.478-13.508 73.478-51.014v-380.106s-146.96-105.03-146.96-239.066c-4.14-7 7.244-49.012-47.606-49.012 0 0-129.374 14.002-52.784 288.08h-197.676z m526.144 0.124s-30.078-0.374-30.078 29.07V639.582s-0.192 16.13 21.152 16.13h102.46s25.224 0 25.224-24.384l24.454-383.352s-0.386-23.26-24.84-23.26h-118.372z"  horiz-adv-x="1024" />

    
    <glyph glyph-name="tougao_bushoucang" unicode="&#58974;" d="M569.972 750.208C607.144 768.724 647.22 778 687.84 778c132.916 0 250.436-97.298 269.188-230.408 12.424-88.266-14.264-167.684-77.02-231.706-68.234-69.582-187.448-188.52-298.812-298.704-18.622-18.434-43.42-28.396-69.16-28.396-25.76 0-50.59 9.994-69.248 28.484A317805.41 317805.41 0 0 0 154.592 303.78c-46.736 46.594-76.026 99.22-86.61 159.798-19.364 110.798 33.096 221.732 131.43 277.948 42.032 24.026 88.7 36.388 135.912 36.388 63.966 0 125.962-22.652 175.86-64.678 2.916 1.99 46.84 31.018 58.788 36.974z m117.868-17.768c-33.628 0-66.744-7.666-97.548-23.01-9.848-4.908-19.74-10.932-32.966-19.84-2.72-1.832-49.104-32.734-49.206-32.852-0.104-0.118-15.278 11.848-16.816 13.242-43.7 40.696-98.912 62.372-155.98 62.372-39.292 0-78.166-10.296-113.3-30.38C140.316 655.26 96.81 563.26 112.86 471.418c8.884-50.848 33.534-95.134 73.89-135.368a317781.96 317781.96 0 0 1 288.12-286.432c10.02-9.93 23.294-15.272 37.166-15.272 13.87 0 27.114 5.32 37.112 15.22 111.212 110.03 230.304 228.848 298.326 298.214 52.926 53.992 74.876 119.312 64.44 193.46-15.52 110.15-113.414 191.2-224.074 191.2z"  horiz-adv-x="1024" />

    
    <glyph glyph-name="tougao_shoucang1" unicode="&#58975;" d="M697.26 776c-38.048 0-76.744-8.464-113.482-26.764-25.768-12.842-48.884-31.018-74.634-47.634 0 0-1.68 1.294-3.208 2.72-50.694 47.216-115.02 71.584-180.08 71.584-44.812 0-89.98-11.564-131.28-35.172-94.89-54.246-145.388-161.176-126.74-267.872 10.71-61.308 40.908-111.98 84.552-155.494 82.46-82.118 225.058-223.854 303.598-301.82 15.51-15.368 35.772-23.04 56.05-23.04 20.262 0 40.494 7.64 55.98 22.972 80.65 79.792 228.994 227.188 314.568 314.452 60.372 61.588 86.672 137.63 74.518 223.972C938.494 685.992 821.366 776 697.26 776z"  horiz-adv-x="1024" />

    
    <glyph glyph-name="fanhui" unicode="&#58976;" d="M261.26 367.846c0.64-0.746 1.334-1.462 2.08-2.144l464.14-423.406c9.822-8.96 25.06-8.274 34.038 1.53 8.976 9.806 8.288 25.02-1.534 33.98L313.768 384.86 762.08 790.12c9.864 8.918 10.62 24.126 1.688 33.972-8.932 9.846-24.166 10.6-34.03 1.684L261.922 402.882c-9.864-8.914-10.62-24.124-1.688-33.97 0.334-0.368 0.676-0.722 1.026-1.066z"  horiz-adv-x="1024" />

    
    <glyph glyph-name="dakai" unicode="&#58977;" d="M762.74 400.154c-0.64 0.746-1.334 1.462-2.08 2.144L296.52 825.704c-9.822 8.96-25.06 8.274-34.038-1.53-8.976-9.806-8.288-25.02 1.534-33.98L710.232 383.14 261.92-22.12c-9.864-8.918-10.62-24.126-1.688-33.972 8.932-9.846 24.166-10.6 34.03-1.684l467.814 422.894c9.864 8.914 10.62 24.124 1.688 33.97a24.44 24.44 0 0 1-1.026 1.066z"  horiz-adv-x="1024" />

    
    <glyph glyph-name="shiti_hongbao" unicode="&#58981;" d="M224 784c-13.254 0-24-10.746-24-24v-752c0-13.254 10.746-24 24-24h576c13.254 0 24 10.746 24 24V760c0 13.254-10.746 24-24 24H224z m0 48h576c39.764 0 72-32.236 72-72v-752c0-39.764-32.236-72-72-72H224c-39.764 0-72 32.236-72 72V760c0 39.764 32.236 72 72 72zM196.068 627.442l295.16-213.55c10.864-7.86 30.68-7.86 41.542 0l295.16 213.55c10.74 7.77 25.744 5.364 33.514-5.376 7.77-10.74 5.364-25.742-5.376-33.512l-295.16-213.55c-27.656-20.008-70.16-20.008-97.814 0L167.932 588.554c-10.74 7.77-13.146 22.774-5.376 33.512 7.77 10.74 22.774 13.146 33.512 5.376z"  horiz-adv-x="1024" />

    
    <glyph glyph-name="shiti_chakanxiangqing" unicode="&#58982;" d="M753.22 658.898l-17.22 17.22 71.466 23.82a16 16 0 0 0 20.238-20.236l-23.82-71.466-16.722 16.72-180.684-180.822a24 24 0 0 0-31.248-2.332l-119.636 88.478-202.742-139.112c-10.93-7.5-25.87-4.718-33.368 6.212-7.5 10.93-4.72 25.868 6.21 33.368l216.844 148.786a24 24 0 0 0 27.85-0.494l116.754-86.348 166.08 166.206zM88 48h848c13.254 0 24-10.746 24-24s-10.746-24-24-24H88c-13.254 0-24 10.746-24 24s10.746 24 24 24z m142 266c13.254 0 24-10.746 24-24v-192.454c0-13.254-10.746-24-24-24s-24 10.746-24 24V290c0 13.254 10.746 24 24 24z m187.334 104.292c13.254 0 24-10.744 24-24v-296.586c0-13.256-10.746-24-24-24-13.256 0-24 10.744-24 24V394.292c0 13.256 10.744 24 24 24z m187.332-104.132c13.256 0 24-10.746 24-24v-192.454c0-13.256-10.744-24-24-24-13.254 0-24 10.744-24 24V290.16c0 13.254 10.746 24 24 24zM792 530c13.254 0 24-10.746 24-24v-408.294c0-13.256-10.746-24-24-24s-24 10.744-24 24V506c0 13.254 10.746 24 24 24z"  horiz-adv-x="1024" />

    
    <glyph glyph-name="shiti_shijuan" unicode="&#58983;" d="M652.582 761.258v-137.732c0-13.256 10.746-24 24-24h137.114L652.58 761.258zM848 551.526h-171.418c-39.764 0-72 32.236-72 72V784H200c-13.254 0-24-10.746-24-24v-752c0-13.254 10.746-24 24-24h624c13.254 0 24 10.746 24 24V551.526zM200 832h439.894a24 24 0 0 0 17.004-7.062l232.106-232.996a24 24 0 0 0 6.996-16.938V8c0-39.764-32.236-72-72-72H200c-39.764 0-72 32.236-72 72V760c0 39.764 32.236 72 72 72z m80-448h336c13.254 0 24-10.746 24-24s-10.746-24-24-24H280c-13.254 0-24 10.746-24 24s10.746 24 24 24z m0-128h336c13.254 0 24-10.746 24-24s-10.746-24-24-24H280c-13.254 0-24 10.746-24 24s10.746 24 24 24z m0-128h256c13.254 0 24-10.746 24-24s-10.746-24-24-24H280c-13.254 0-24 10.746-24 24s10.746 24 24 24z m336-46c-13.254 0-24 10.746-24 24s10.746 24 24 24 24-10.746 24-24-10.746-24-24-24z"  horiz-adv-x="1024" />

    
    <glyph glyph-name="shiti_touping" unicode="&#58984;" d="M372.076 360H88c-13.254 0-24 10.746-24 24s10.746 24 24 24h286.014l-81.02 81.022c-9.386 9.386-9.386 24.6 0 33.986 9.384 9.384 24.6 9.384 33.984 0l120.09-120.092a23.966 23.966 0 0 0 7.02-17.946 23.966 23.966 0 0 0-7.02-17.948l-120.09-120.09c-9.386-9.384-24.6-9.384-33.986 0-9.384 9.384-9.384 24.6 0 33.984L372.076 360zM489 95.644H208c-39.764 0-72 32.236-72 72V261.1h48v-93.456c0-13.256 10.746-24 24-24h608c13.254 0 24 10.744 24 24V624H184v-138.978H136V624H88c-13.254 0-24 10.746-24 24s10.746 24 24 24h848c13.254 0 24-10.746 24-24s-10.746-24-24-24h-48v-456.356c0-39.764-32.236-72-72-72H537V25c0-13.254-10.746-24-24-24s-24 10.746-24 24v70.644z"  horiz-adv-x="1024" />

    
    <glyph glyph-name="shiti_guanbitouping" unicode="&#58985;" d="M477.872 384.186L195.03 101.344c-9.374-9.372-9.374-24.568 0-33.94 9.372-9.374 24.568-9.374 33.94 0l282.844 282.84 282.842-282.84c9.372-9.374 24.568-9.374 33.94 0 9.374 9.372 9.374 24.568 0 33.94l-282.84 282.842 282.84 282.844c9.374 9.372 9.374 24.568 0 33.94-9.372 9.374-24.568 9.374-33.94 0L511.814 418.128 228.97 700.97c-9.372 9.374-24.568 9.374-33.94 0-9.374-9.372-9.374-24.568 0-33.94l282.842-282.844z"  horiz-adv-x="1024" />

    
    <glyph glyph-name="ykq_erweima" unicode="&#58986;" d="M490 408V657c0 12.702 10.298 23 23 23h2c12.702 0 23-10.298 23-23v-274c0-12.702-10.298-23-23-23h-2c-1.016 0-2.02 0.066-3 0.194-0.98-0.128-1.984-0.194-3-0.194h-274c-12.702 0-23 10.298-23 23v2c0 12.702 10.298 23 23 23H490z m-401 0h66c12.702 0 23-10.298 23-23v-2c0-12.702-10.298-23-23-23h-66c-12.702 0-23 10.298-23 23v2c0 12.702 10.298 23 23 23z m528 0h322c12.702 0 23-10.298 23-23v-2c0-12.702-10.298-23-23-23h-322c-12.702 0-23 10.298-23 23v2c0 12.702 10.298 23 23 23zM490-41v290c0 12.702 10.298 23 23 23h2c12.702 0 23-10.298 23-23v-290c0-12.702-10.298-23-23-23h-2c-12.702 0-23 10.298-23 23z m0 784v66c0 12.702 10.298 23 23 23h2c12.702 0 23-10.298 23-23v-66c0-12.702-10.298-23-23-23h-2c-12.702 0-23 10.298-23 23zM138 832h188c39.764 0 72-32.236 72-72v-188c0-39.764-32.236-72-72-72H138c-39.764 0-72 32.236-72 72V760c0 39.764 32.236 72 72 72z m0-48c-13.254 0-24-10.746-24-24v-188c0-13.254 10.746-24 24-24h188c13.254 0 24 10.746 24 24V760c0 13.254-10.746 24-24 24H138z m0-516h188c39.764 0 72-32.236 72-72v-188c0-39.764-32.236-72-72-72H138c-39.764 0-72 32.236-72 72v188c0 39.764 32.236 72 72 72z m0-48c-13.254 0-24-10.746-24-24v-188c0-13.254 10.746-24 24-24h188c13.254 0 24 10.746 24 24v188c0 13.254-10.746 24-24 24H138zM702 832h188c39.764 0 72-32.236 72-72v-188c0-39.764-32.236-72-72-72h-188c-39.764 0-72 32.236-72 72V760c0 39.764 32.236 72 72 72z m0-48c-13.254 0-24-10.746-24-24v-188c0-13.254 10.746-24 24-24h188c13.254 0 24 10.746 24 24V760c0 13.254-10.746 24-24 24h-188z m-4-512h120c39.764 0 72-32.236 72-72v-120c0-39.764-32.236-72-72-72h-120c-39.764 0-72 32.236-72 72v120c0 39.764 32.236 72 72 72z m0-48c-13.254 0-24-10.746-24-24v-120c0-13.254 10.746-24 24-24h120c13.254 0 24 10.746 24 24v120c0 13.254-10.746 24-24 24h-120z"  horiz-adv-x="1024" />

    
    <glyph glyph-name="suijidianming1" unicode="&#58987;" d="M364.806 447.7C302.286 482.552 260 549.34 260 626c0 112.666 91.334 204 204 204s204-91.334 204-204c0-76.928-42.58-143.912-105.46-178.666 75.608-19.624 143.774-61.364 196.086-120.354 8.796-9.918 7.886-25.086-2.032-33.88-9.918-8.796-25.086-7.886-33.88 2.032C657.238 368.966 563.62 412 463 412c-183.576 0-333.856-142.552-346.182-323H451.98c13.254 0 24-10.746 24-24s-10.746-24-24-24H92c-13.254 0-24 10.746-24 24 0 184.254 126.158 339.042 296.806 382.7z m491.158-461.384c9.742 5.18 20.572 14.114 32.478 27.178h-10.608a216 216 0 0 0-167.56 79.696l-57.614 70.824A168 168 0 0 1 522.334 226H506c-13.254 0-24 10.746-24 24s10.746 24 24 24h16.334a216 216 0 0 0 167.562-79.696l57.612-70.824a168 168 0 0 1 130.326-61.986h53.888c16.168 0 27.71-15.66 22.926-31.104-4.98-16.07-15.4-32.41-30.972-49.494-15.114-16.584-30.09-28.94-45.18-36.962-11.704-6.224-26.236-1.78-32.458 9.924-6.222 11.704-1.78 26.236 9.926 32.458zM506 36.544h22.04a156 156 0 0 1 121.02 57.558l2.38 2.928c8.366 10.284 23.48 11.84 33.764 3.474 10.282-8.364 11.838-23.48 3.474-33.762l-2.384-2.93a204 204 0 0 0-158.254-75.268H506c-13.254 0-24 10.744-24 24 0 13.254 10.746 24 24 24zM890.986 251.7c-9.124 11.51-18.032 20.66-26.646 27.478-10.394 8.224-12.152 23.32-3.926 33.712 8.226 10.394 23.32 12.152 33.714 3.926 11.708-9.264 23.172-21.04 34.474-35.3 12.086-15.248 20.834-31.83 26.126-49.63 4.574-15.386-6.954-30.84-23.006-30.84H853.48c-34.18 0-61.676-12.516-82.974-36.82-8.734-9.97-23.898-10.97-33.866-2.234-9.97 8.734-10.97 23.898-2.236 33.866 30.394 34.686 71.04 53.19 119.076 53.19h39.546a114.962 114.962 0 0 1-2.04 2.652zM464 470c86.156 0 156 69.844 156 156s-69.844 156-156 156-156-69.844-156-156 69.844-156 156-156z"  horiz-adv-x="1024" />

    
    <glyph glyph-name="duihao" unicode="&#58988;" d="M207.126 356.18l177.018-143.484L824.92 625.8s29.57 27.466 55.406 6.006c7.67-6.416 16.55-24.692-3.432-53.338L416.69 30.042s-35.272-49.128-77.154 0.514l-198.614 272.8s-23.566 36.962 5.904 59.088c9.99 7.392 32.596 18.994 60.3-6.264z"  horiz-adv-x="1024" />

    
    <glyph glyph-name="biaoqian" unicode="&#58969;" d="M248.076 359.664l-9.9-247.486 247.488 9.9 395.002 395L643.078 754.6659999999999l-395-395z m-47.588 11.226c0.108 2.952 0.76 5.886 1.952 8.644 1.34 2.996 3.04 5.43 5.11 7.486L626.108 805.58c9.372 9.372 24.568 9.372 33.94 0L931.58 534.048c9.372-9.372 9.372-24.568 0-33.94L513.02 81.54999999999995a24.014 24.014 0 0 0-7.198-4.984c-3.046-1.32-5.98-1.97-8.932-2.08l-282.774-11.31c-14-0.56-25.5 10.94-24.94 24.94l11.312 282.774z m142.776-153.626c-18.744 18.746-18.744 49.138 0 67.884 18.746 18.744 49.138 18.744 67.884 0 18.744-18.746 18.744-49.138 0-67.884-18.746-18.744-49.138-18.744-67.884 0z"  horiz-adv-x="1024" />

    
    <glyph glyph-name="ykq_tab_active" unicode="&#58971;" d="M304 616c0-13.254-10.746-24-24-24s-24 10.746-24 24v48c0 39.764 32.236 72 72 72h560c39.764 0 72-32.236 72-72v-368c0-39.764-32.236-72-72-72h-48c-13.254 0-24 10.746-24 24s10.746 24 24 24h48c13.254 0 24 10.746 24 24V664c0 13.254-10.746 24-24 24H328c-13.254 0-24-10.746-24-24v-48z m-168-72h560c39.764 0 72-32.236 72-72v-367.998c0-39.764-32.236-72-72-72H136c-39.764 0-72 32.236-72 72V472c0 39.764 32.236 72 72 72z m120-72v-176c0-39.764 32.236-72 72-72h368c13.254 0 24 10.746 24 24s-10.746 24-24 24H328c-13.254 0-24 10.746-24 24v176c0 13.254-10.746 24-24 24s-24-10.746-24-24z"  horiz-adv-x="1024" />

    
    <glyph glyph-name="ykq_tab_active1" unicode="&#58972;" d="M168 736h688c39.764 0 72-32.236 72-72v-488c0-39.764-32.236-72-72-72H283.064a24 24 0 0 1-10.506-2.42l-142.052-69.16C114.564 24.659999999999968 96 36.27200000000005 96 54V664c0 39.764 32.236 72 72 72z m344-259.876l126.16-140.18c8.78-9.754 23.768-10.648 33.644-2.006l128 112c9.976 8.728 10.986 23.89 2.258 33.866-8.728 9.976-23.89 10.986-33.866 2.258l-110.19-96.416-128.166 142.41c-9.534 10.592-26.146 10.592-35.68 0L357.312 376H240c-13.254 0-24-10.746-24-24s10.746-24 24-24h128a24 24 0 0 1 17.84 7.944l126.16 140.18z"  horiz-adv-x="1024" />

    
    <glyph glyph-name="ykq_tab_normal" unicode="&#58989;" d="M728.946 552.248c8.092-10.5 6.14-25.57-4.356-33.66-10.5-8.092-25.57-6.14-33.66 4.356C647.946 578.71 581.752 612 510.004 612c-71.784 0-138.008-33.324-180.988-89.136-8.086-10.5-23.156-12.46-33.658-4.372-10.5 8.088-12.46 23.156-4.372 33.66C342.958 619.64 423.166 660 510.004 660c86.796 0 166.966-40.32 218.942-107.752z m136.064 105.55c8.092-10.498 6.14-25.568-4.358-33.66-10.498-8.092-25.568-6.14-33.66 4.358C751.948 725.856 636.336 784 511.06 784c-125.34 0-241.004-58.2-316.04-155.644-8.088-10.502-23.16-12.46-33.66-4.372-10.5 8.086-12.46 23.156-4.372 33.658C241.016 766.762 370.664 832 511.058 832c140.326 0 269.914-65.172 353.952-174.2zM752 24V360c0 13.254-10.746 24-24 24H296c-13.254 0-24-10.746-24-24v-48.316c0-13.256-10.746-24-24-24s-24 10.744-24 24V360c0 39.764 32.236 72 72 72h432c39.764 0 72-32.236 72-72v-336c0-13.254-10.746-24-24-24s-24 10.746-24 24zM246 240c13.254 0 24-10.746 24-24v-96c0-13.254-10.746-24-24-24s-24 10.746-24 24v96c0 13.254 10.746 24 24 24z m0-240c-13.254 0-24 10.746-24 24s10.746 24 24 24 24-10.746 24-24-10.746-24-24-24z m266 80c-70.692 0-128 57.308-128 128 0 70.692 57.308 128 128 128 70.692 0 128-57.308 128-128 0-70.692-57.308-128-128-128z m0 48c44.182 0 80 35.818 80 80s-35.818 80-80 80-80-35.818-80-80 35.818-80 80-80z"  horiz-adv-x="1024" />

    
    <glyph glyph-name="ykq_tab_normal1" unicode="&#58990;" d="M144 664v-571.622l117.494 57.2A24 24 0 0 0 272 152h584c13.254 0 24 10.746 24 24V664c0 13.254-10.746 24-24 24s-24 10.746-24 24 10.746 24 24 24c39.764 0 72-32.236 72-72v-488c0-39.764-32.236-72-72-72H277.532l-147.026-71.58C114.564 24.659999999999968 96 36.27200000000005 96 54V664c0 39.764 32.236 72 72 72h304.034c13.254 0 24-10.746 24-24s-10.746-24-24-24H168c-13.254 0-24-10.746-24-24z m59-267l3-3-3 3zM512 476.124l-126.16-140.18A24 24 0 0 0 368 328h-128c-13.254 0-24 10.746-24 24s10.746 24 24 24h117.312l136.848 152.056c9.534 10.592 26.146 10.592 35.68 0l128.166-142.41 110.19 96.416c9.976 8.728 25.138 7.718 33.866-2.258 8.728-9.976 7.718-25.138-2.258-33.866l-128-112c-9.876-8.642-24.864-7.748-33.644 2.006L512 476.124zM688 712c0-13.254-10.746-24-24-24h-96c-13.254 0-24 10.746-24 24s10.746 24 24 24h96c13.254 0 24-10.746 24-24z m72-24c-13.254 0-24 10.746-24 24s10.746 24 24 24 24-10.746 24-24-10.746-24-24-24z"  horiz-adv-x="1024" />

    
    <glyph glyph-name="ykq_tab_normal2" unicode="&#58991;" d="M136 496c-13.254 0-24-10.746-24-24v-367.998c0-13.254 10.746-24 24-24h560c13.254 0 24 10.746 24 24V472c0 13.254-10.746 24-24 24H136z m0 48h560c39.764 0 72-32.236 72-72v-367.998c0-39.764-32.236-72-72-72H136c-39.764 0-72 32.236-72 72V472c0 39.764 32.236 72 72 72z m168 72c0-13.254-10.746-24-24-24s-24 10.746-24 24v48c0 39.764 32.236 72 72 72h560c39.764 0 72-32.236 72-72v-368c0-39.764-32.236-72-72-72h-48c-13.254 0-24 10.746-24 24s10.746 24 24 24h48c13.254 0 24 10.746 24 24V664c0 13.254-10.746 24-24 24H328c-13.254 0-24-10.746-24-24v-48z m-48-192v-128c0-39.764 32.236-72 72-72h128c13.254 0 24 10.746 24 24s-10.746 24-24 24h-128c-13.254 0-24 10.746-24 24v128c0 13.254-10.746 24-24 24s-24-10.746-24-24z m296-200h96c13.254 0 24 10.746 24 24s-10.746 24-24 24h-96c-13.254 0-24-10.746-24-24s10.746-24 24-24z"  horiz-adv-x="1024" />

    
    <glyph glyph-name="ykq_tab_active2" unicode="&#58992;" d="M799.984 24H800v-0.016c-0.01-13.256-10.76-23.994-24.016-23.984v0.016L248 0.39999999999997726c-13.248 0.01-23.984 10.752-23.984 24H224V360.13599999999997C224 399.826 256.234 432 295.998 432h431.988c39.762 0 71.998-32.174 71.998-71.864V24z m-287.992 56c70.69 0 127.996 57.308 127.996 128 0 70.692-57.306 128-127.996 128s-127.996-57.308-127.996-128c0-70.692 57.306-128 127.996-128zM512 128c44.182 0 80 35.818 80 80s-35.818 80-80 80-80-35.818-80-80 35.818-80 80-80zM730.946 552.248C678.97 619.6800000000001 598.8 660 512.004 660c-86.84 0-167.046-40.36-219.018-107.85-8.088-10.5-6.13-25.57 4.372-33.658 10.5-8.086 25.572-6.13 33.66 4.372 42.978 55.812 109.2 89.136 180.986 89.136 71.748 0 137.942-33.29 180.926-89.056 8.09-10.498 23.16-12.448 33.66-4.356 10.498 8.09 12.448 23.16 4.356 33.66zM867.01 657.8C782.972 766.826 653.384 832 513.058 832c-140.394 0-270.04-65.238-354.072-174.358-8.088-10.5-6.13-25.572 4.372-33.66 10.5-8.086 25.572-6.128 33.66 4.374C272.052 725.8 387.716 784 513.056 784c125.28 0 240.89-58.142 315.934-155.504 8.092-10.5 23.162-12.45 33.66-4.358 10.5 8.092 12.45 23.162 4.358 33.66z"  horiz-adv-x="1024" />

    
    <glyph glyph-name="ykq_tab_avtive" unicode="&#58993;" d="M264 312c-39.764 0-72 32.236-72 72s32.236 72 72 72 72-32.236 72-72-32.236-72-72-72z m496 0c-39.764 0-72 32.236-72 72s32.236 72 72 72 72-32.236 72-72-32.236-72-72-72z m-248 0c-39.764 0-72 32.236-72 72s32.236 72 72 72 72-32.236 72-72-32.236-72-72-72z m400 202v120c0 13.254-10.746 24-24 24H168c-13.254 0-24 10.746-24 24s10.746 24 24 24h720c39.764 0 72-32.236 72-72v-120c0-13.254-10.746-24-24-24s-24 10.746-24 24zM112 254v-120c0-13.254 10.746-24 24-24h432c13.254 0 24-10.746 24-24s-10.746-24-24-24H136c-39.764 0-72 32.236-72 72v120c0 13.254 10.746 24 24 24s24-10.746 24-24z m552-192c-13.254 0-24 10.746-24 24s10.746 24 24 24h96c13.254 0 24-10.746 24-24s-10.746-24-24-24h-96z m192 0c-13.254 0-24 10.746-24 24s10.746 24 24 24 24-10.746 24-24-10.746-24-24-24z"  horiz-adv-x="1024" />

    
    <glyph glyph-name="ykq_tab_normal3" unicode="&#58994;" d="M264 312c-39.764 0-72 32.236-72 72s32.236 72 72 72 72-32.236 72-72-32.236-72-72-72z m496 0c-39.764 0-72 32.236-72 72s32.236 72 72 72 72-32.236 72-72-32.236-72-72-72z m-248 0c-39.764 0-72 32.236-72 72s32.236 72 72 72 72-32.236 72-72-32.236-72-72-72z m400 202v120c0 13.254-10.746 24-24 24H168c-13.254 0-24 10.746-24 24s10.746 24 24 24h720c39.764 0 72-32.236 72-72v-120c0-13.254-10.746-24-24-24s-24 10.746-24 24zM112 254v-120c0-13.254 10.746-24 24-24h432c13.254 0 24-10.746 24-24s-10.746-24-24-24H136c-39.764 0-72 32.236-72 72v120c0 13.254 10.746 24 24 24s24-10.746 24-24z m552-192c-13.254 0-24 10.746-24 24s10.746 24 24 24h96c13.254 0 24-10.746 24-24s-10.746-24-24-24h-96z m192 0c-13.254 0-24 10.746-24 24s10.746 24 24 24 24-10.746 24-24-10.746-24-24-24z"  horiz-adv-x="1024" />

    
    <glyph glyph-name="ykq_tab_danmu" unicode="&#58995;" d="M136 680c-13.254 0-24-10.746-24-24v-544c0-13.254 10.746-24 24-24h752c13.254 0 24 10.746 24 24V656c0 13.254-10.746 24-24 24H136z m0 48h752c39.764 0 72-32.236 72-72v-544c0-39.764-32.236-72-72-72H136c-39.764 0-72 32.236-72 72V656c0 39.764 32.236 72 72 72z m200-168h408c13.254 0 24-10.746 24-24s-10.746-24-24-24H336c-13.254 0-24 10.746-24 24s10.746 24 24 24z m-56-152h288c13.254 0 24-10.746 24-24s-10.746-24-24-24H280c-13.254 0-24 10.746-24 24s10.746 24 24 24z m368 0h48c13.254 0 24-10.746 24-24s-10.746-24-24-24h-48c-13.254 0-24 10.746-24 24s10.746 24 24 24z m-240-152h336c13.254 0 24-10.746 24-24s-10.746-24-24-24H408c-13.254 0-24 10.746-24 24s10.746 24 24 24z"  horiz-adv-x="1024" />

    
    <glyph glyph-name="ykq_tab_tougao" unicode="&#58996;" d="M768.78 792L720.12 744H136c-13.254 0-24-10.746-24-24v-712c0-13.254 10.746-24 24-24h712c13.254 0 24 10.746 24 24V591.362l48 47.916V8c0-39.764-32.236-72-72-72H136c-39.764 0-72 32.236-72 72V720c0 39.764 32.236 72 72 72h632.78z m-130.996-262.808l17.274 65.61 67.882-67.882-65.61-17.276a16 16 0 0 0-19.546 19.548zM847.092 786.834l33.852 33.852a16 16 0 0 0 22.626 0l45.256-45.254a16 16 0 0 0 0-22.628L914.96 718.94l-67.87 67.894z m56.604-79.16l-169.83-169.83-67.884 67.88 169.82 169.822 67.894-67.872zM228 384h528c13.254 0 24-10.746 24-24s-10.746-24-24-24H228c-13.254 0-24 10.746-24 24s10.746 24 24 24z m0-192h336c13.254 0 24-10.746 24-24s-10.746-24-24-24H228c-13.254 0-24 10.746-24 24s10.746 24 24 24z"  horiz-adv-x="1024" />

    
    <glyph glyph-name="ykq-shiti-guanbi" unicode="&#58999;" d="M512 417.94l178.19 178.192c9.374 9.372 24.57 9.372 33.942 0s9.372-24.568 0-33.94L545.942 384l178.19-178.19c9.372-9.374 9.372-24.57 0-33.942s-24.568-9.372-33.94 0L512 350.058l-178.19-178.19c-9.374-9.372-24.57-9.372-33.942 0s-9.372 24.568 0 33.94L478.058 384l-178.19 178.19c-9.372 9.374-9.372 24.57 0 33.942s24.568 9.372 33.94 0L512 417.942zM512-64C264.576-64 64 136.57600000000002 64 384S264.576 832 512 832s448-200.576 448-448-200.576-448-448-448z m0 48c220.914 0 400 179.086 400 400S732.914 784 512 784 112 604.914 112 384s179.086-400 400-400z"  horiz-adv-x="1024" />

    
    <glyph glyph-name="ykq-tuichufangying" unicode="&#58998;" d="M901.86 400.032A23.912 23.912 0 0 0 908 384c0-4.736-1.372-9.152-3.74-12.872a24.046 24.046 0 0 0-4.034-5.344l-120.09-120.09c-9.384-9.384-24.6-9.384-33.984 0-9.386 9.386-9.386 24.6 0 33.986l80.32 80.32H354c-13.254 0-24 10.746-24 24s10.746 24 24 24h472.094l-79.942 79.942c-9.386 9.386-9.386 24.6 0 33.986 9.384 9.384 24.6 9.384 33.984 0l120.09-120.09c0.58-0.58 1.126-1.184 1.634-1.806zM604 231.39200000000005c0 13.254 10.746 24 24 24s24-10.746 24-24V50c0-39.764-32.236-72-72-72H176c-39.764 0-72 32.236-72 72V720c0 39.764 32.236 72 72 72h404c39.764 0 72-32.236 72-72v-184.262c0-13.256-10.746-24-24-24s-24 10.744-24 24V720c0 13.254-10.746 24-24 24H176c-13.254 0-24-10.746-24-24v-670c0-13.254 10.746-24 24-24h404c13.254 0 24 10.746 24 24v181.392z"  horiz-adv-x="1024" />

    
    <glyph glyph-name="ykq_shiti" unicode="&#58938;" d="M200 832h624c39.764 0 72-32.236 72-72v-752c0-39.764-32.236-72-72-72H200c-39.764 0-72 32.236-72 72V760c0 39.764 32.236 72 72 72z m0-48c-13.254 0-24-10.746-24-24v-752c0-13.254 10.746-24 24-24h624c13.254 0 24 10.746 24 24V760c0 13.254-10.746 24-24 24H200z m160-224h256c13.254 0 24-10.746 24-24s-10.746-24-24-24H360c-13.254 0-24 10.746-24 24s10.746 24 24 24z m0-112h256c13.254 0 24-10.746 24-24s-10.746-24-24-24H360c-13.254 0-24 10.746-24 24s10.746 24 24 24z m0-112h256c13.254 0 24-10.746 24-24s-10.746-24-24-24H360c-13.254 0-24 10.746-24 24s10.746 24 24 24z m0-112h256c13.254 0 24-10.746 24-24s-10.746-24-24-24H360c-13.254 0-24 10.746-24 24s10.746 24 24 24z m-80 464h464c13.254 0 24-10.746 24-24s-10.746-24-24-24H280c-13.254 0-24 10.746-24 24s10.746 24 24 24z m0-176c-13.254 0-24 10.746-24 24s10.746 24 24 24 24-10.746 24-24-10.746-24-24-24z m0-112c-13.254 0-24 10.746-24 24s10.746 24 24 24 24-10.746 24-24-10.746-24-24-24z m0-112c-13.254 0-24 10.746-24 24s10.746 24 24 24 24-10.746 24-24-10.746-24-24-24z m0-112c-13.254 0-24 10.746-24 24s10.746 24 24 24 24-10.746 24-24-10.746-24-24-24z"  horiz-adv-x="1024" />

    
    <glyph glyph-name="ykq_yuyin" unicode="&#58939;" d="M305.46 198.286c-16.316-13.264-45.682-13.264-58.734 3.318-6.526 6.632-9.788 16.58-9.788 26.53 0 9.948 3.262 19.898 13.05 29.846 39.156 33.164 61.996 79.592 61.996 129.336 0 49.744-22.84 92.856-61.996 126.02-16.314 13.266-19.576 39.796-3.262 53.06 16.314 16.582 42.418 16.582 58.732 3.318C364.192 523.284 396.82 453.64 396.82 384s-32.628-135.968-91.36-185.714zM442.77 63.21c-15.666-16.452-40.728-16.452-56.392 0-9.4 6.58-12.532 16.454-12.532 26.324 0 9.872 3.134 19.744 12.532 26.324 72.056 69.1 112.782 161.232 112.782 256.654 0 98.714-40.726 187.556-112.782 256.656-15.664 16.452-15.664 39.484 0 52.646 15.664 16.452 40.726 16.452 56.392 0 87.72-82.26 137.846-194.136 137.846-309.3 0-115.166-50.126-227.042-137.846-309.304zM602.47-51.68c-15.41-16.426-40.066-16.426-55.476 0-9.246 6.57-12.328 16.424-12.328 26.28 0 9.854 3.082 19.71 12.328 26.28 104.786 105.12 163.342 239.81 163.342 384.352 0 144.542-58.556 279.23-163.34 384.352-15.412 16.426-15.412 39.42 0 52.56 15.408 13.14 40.064 13.14 55.474 0 120.194-118.26 184.914-272.66 184.914-436.912 0-160.968-64.72-318.65-184.914-436.914z"  horiz-adv-x="1024" />

    
    <glyph glyph-name="ykq_bianji" unicode="&#58940;" d="M895.448 769.16c37.52-37.328 37.52-97.912 0-135.24L316.882 58.43799999999999l0.856 0.854-169.868 168.97-2.056-2.04 579.7 576.73c37.588 37.328 98.368 37.328 135.946 0l33.988-33.792z m-101.96-236.622l33.986 33.794-169.866 168.968-34.048-33.792 169.926-168.97zM72.906-27.524a6 6 0 0 0-7.416 7.24l52.634 210.468 161.66-160.676-206.88-57.032zM406.036-64h528c13.256 0 24 10.746 24 24s-10.744 24-24 24h-528c-13.254 0-24-10.746-24-24s10.746-24 24-24z"  horiz-adv-x="1024" />

    
    <glyph glyph-name="ykq_zhuguanti" unicode="&#58942;" d="M200 832h624c39.764 0 72-32.236 72-72v-752c0-39.764-32.236-72-72-72H200c-39.764 0-72 32.236-72 72V760c0 39.764 32.236 72 72 72z m0-48c-13.254 0-24-10.746-24-24v-752c0-13.254 10.746-24 24-24h624c13.254 0 24 10.746 24 24V760c0 13.254-10.746 24-24 24H200z m80-286h452c13.254 0 24-10.746 24-24s-10.746-24-24-24H280c-13.254 0-24 10.746-24 24s10.746 24 24 24z m0-112h452c13.254 0 24-10.746 24-24s-10.746-24-24-24H280c-13.254 0-24 10.746-24 24s10.746 24 24 24z m0-112h452c13.254 0 24-10.746 24-24s-10.746-24-24-24H280c-13.254 0-24 10.746-24 24s10.746 24 24 24z m0-112h452c13.254 0 24-10.746 24-24s-10.746-24-24-24H280c-13.254 0-24 10.746-24 24s10.746 24 24 24z m0 526h252c13.254 0 24-10.746 24-24s-10.746-24-24-24H280c-13.254 0-24 10.746-24 24s10.746 24 24 24z"  horiz-adv-x="1024" />

    
    <glyph glyph-name="ykq_shanchu" unicode="&#58941;" d="M680 682h256c13.254 0 24-10.746 24-24s-10.746-24-24-24h-96v-600c0-40.064-33.71-72-74.666-72H258.666C217.71-38 184-6.064 184 34V634H88c-13.254 0-24 10.746-24 24s10.746 24 24 24h256V734c0 39.764 32.236 72 72 72h192c39.764 0 72-32.236 72-72v-52z m-48 0V734c0 13.254-10.746 24-24 24h-192c-13.254 0-24-10.746-24-24v-52h240z m160-48H232v-600c0-12.956 11.658-24 26.666-24h506.668c15.008 0 26.666 11.044 26.666 24V634z m-280-112c13.254 0 24-10.746 24-24v-336c0-13.254-10.746-24-24-24s-24 10.746-24 24V498c0 13.254 10.746 24 24 24z m144-42c13.254 0 24-10.746 24-24v-252c0-13.254-10.746-24-24-24s-24 10.746-24 24V456c0 13.254 10.746 24 24 24z m-304 0c13.254 0 24-10.746 24-24v-252c0-13.254-10.746-24-24-24s-24 10.746-24 24V456c0 13.254 10.746 24 24 24z"  horiz-adv-x="1024" />

    
    <glyph glyph-name="ykq_dafen" unicode="&#58952;" d="M688 637.6V760c0 13.254-10.746 24-24 24H379.418v-160.474c0-39.764-32.236-72-72-72H136V8c0-13.254 10.746-24 24-24h504c13.254 0 24 10.746 24 24v90.4h48V8c0-39.764-32.236-72-72-72H160c-39.764 0-72 32.236-72 72V575.004a24 24 0 0 0 6.996 16.938L327.102 824.938A24 24 0 0 0 344.106 832H664c39.764 0 72-32.236 72-72v-122.4h-48zM170.304 599.524h137.114c13.254 0 24 10.744 24 24V761.258l-161.114-161.732z m241.64-190.44l136.538-110.672 339.976 318.632s22.808 21.184 42.736 4.632c5.916-4.948 12.766-19.044-2.646-41.14L573.586 157.532s-27.206-37.894-59.51 0.396L360.88 368.34s-18.178 28.51 4.552 45.576c7.708 5.7 25.144 14.65 46.512-4.832z"  horiz-adv-x="1024" />

    
    <glyph glyph-name="logo" unicode="&#58997;" d="M104.26 816a40.276 40.276 0 0 0 28.498-11.78 40.208 40.208 0 0 0 11.79-28.476v-382.18c0-22.222-18.03-40.24-40.274-40.24-22.242 0-40.274 18.018-40.274 40.24V775.778C64 797.99 82.024 816 104.26 816z m151.008-45.326c22.21 0.018 40.24-17.94 40.29-40.132v-135.946c0-22.224-18.032-40.24-40.274-40.24-22.244 0-40.274 18.016-40.274 40.24V730.45c0 22.216 18.024 40.224 40.26 40.224zM406.4 705.406a40.276 40.276 0 0 0 28.5-11.782 40.208 40.208 0 0 0 11.79-28.474v-251.488c0-22.224-18.03-40.24-40.274-40.24-22.242 0-40.274 18.016-40.274 40.24v251.52c0 22.214 18.024 40.224 40.26 40.224zM104.26 272.86a40.276 40.276 0 0 0 28.508-11.794 40.208 40.208 0 0 0 11.78-28.492v-130.66c0-22.226-18.03-40.24-40.274-40.24-22.242 0-40.274 18.014-40.274 40.24v130.72c0 22.216 18.024 40.226 40.26 40.226z m151.008 201.12a40.276 40.276 0 0 0 28.488-11.768 40.208 40.208 0 0 0 11.802-28.454v-377.172c0-22.224-18.032-40.24-40.274-40.24-22.244 0-40.274 18.016-40.274 40.24V433.76c0 22.214 18.024 40.224 40.26 40.224z m151.132-181.054a40.276 40.276 0 0 0 28.488-11.772 40.208 40.208 0 0 0 11.802-28.454v-261.474c0-22.224-18.03-40.24-40.274-40.24-22.242 0-40.274 18.016-40.274 40.24V252.7c0 22.216 18.024 40.226 40.26 40.226zM919.71 815.938a40.276 40.276 0 0 0 28.498-11.78A40.208 40.208 0 0 0 960 775.684V101.76c0.1-18.896-12.98-35.312-31.432-39.456h-0.862a2169.334 2169.334 0 0 1-345.292-108.32 40.288 40.288 0 0 0-37.586 3.92 40.216 40.216 0 0 0-17.774 33.324v673.8a40.222 40.222 0 0 0 23.928 36.874l1.23 0.522a1916.488 1916.488 0 0 0 358.67 112.5l1.262 0.278a40.446 40.446 0 0 0 7.566 0.736z"  horiz-adv-x="1024" />

    
    <glyph glyph-name="weiwancheng" unicode="&#58978;" d="M512 20c-30.928 0-56 25.072-56 56s25.072 56 56 56 56-25.072 56-56-25.072-56-56-56z m0 746c30.928 0 56-25.072 56-56v-442c0-30.928-25.072-56-56-56s-56 25.072-56 56V710c0 30.928 25.072 56 56 56z"  horiz-adv-x="1024" />

    
    <glyph glyph-name="banduibancuo" unicode="&#59000;" d="M712.074 360.73L417.598 66.25599999999997c-21.87-21.87-57.326-21.87-79.196 0-0.814 0.814-1.6 1.648-2.354 2.5L112.402 292.4c-21.87 21.87-21.87 57.326 0 79.196 21.87 21.87 57.326 21.87 79.196 0l186.476-186.476 254.804 254.804-117.28 117.28c-21.87 21.87-21.87 57.326 0 79.196 21.87 21.87 57.326 21.87 79.196 0l117.28-117.28 118.474 118.476c21.87 21.87 57.326 21.87 79.196 0 21.87-21.87 21.87-57.326 0-79.196l-118.474-118.476 120.308-120.308c21.87-21.87 21.87-57.326 0-79.196-21.87-21.87-57.326-21.87-79.196 0l-120.308 120.308z"  horiz-adv-x="1024" />

    
    <glyph glyph-name="xiaoxi" unicode="&#58912;" d="M312.1 121.696a419.456 419.456 0 0 0-14.618 8.38A709.18 709.18 0 0 1 294 132l0.368-0.036C186.656 197.916 116 308.592 116 434c0 202.136 183.564 366 410 366s410-163.864 410-366c0-165.146-122.526-304.744-290.856-350.306C585.84 64.092 541.46 43.528 512 22c-18.426-13.466-67.43-56.65-90-72-5.88-4-11.38-7.272-16.5-9.822A12.326 12.326 0 0 0 388-46c4.43 19.07 16.424 57.42 14 76-3.628 27.82-33.596 58.386-89.9 91.696z"  horiz-adv-x="1024" />

    
    <glyph glyph-name="xiaoxi-pressed" unicode="&#58913;" d="M312.1 121.696a419.456 419.456 0 0 0-14.618 8.38A709.18 709.18 0 0 1 294 132l0.368-0.036C186.656 197.916 116 308.592 116 434c0 202.136 183.564 366 410 366s410-163.864 410-366c0-165.146-122.526-304.744-290.856-350.306C585.84 64.092 541.46 43.528 512 22c-18.426-13.466-67.43-56.65-90-72-5.88-4-11.38-7.272-16.5-9.822A12.326 12.326 0 0 0 388-46c4.43 19.07 16.424 57.42 14 76-3.628 27.82-33.596 58.386-89.9 91.696zM482 414c33.138 0 60 26.862 60 60 0 33.138-26.862 60-60 60-33.138 0-60-26.862-60-60 0-33.138 26.862-60 60-60z m260 0c33.138 0 60 26.862 60 60 0 33.138-26.862 60-60 60-33.138 0-60-26.862-60-60 0-33.138 26.862-60 60-60z"  horiz-adv-x="1024" />

    
    <glyph glyph-name="wode" unicode="&#58915;" d="M405.156 144.102C277.038 192.832 186 316.784 186 462c0 187.776 152.224 340 340 340s340-152.224 340-340c0-145.4-91.27-269.482-219.642-318.082 60.434-37.2 102.358-101.488 108.782-175.908A18.426 18.426 0 0 0 736.782-52H314.396a18.396 18.396 0 0 0-18.328 19.974c6.426 74.558 48.48 138.95 109.088 176.128z"  horiz-adv-x="1024" />

    
    <glyph glyph-name="kecheng-pressed" unicode="&#58916;" d="M369.142 86l-22.402-137.222A20 20 0 0 0 327-68h-59.47c-11.046 0-20 8.954-20 20a20 20 0 0 0 0.26 3.222L269.144 86H136c-22.092 0-40 17.908-40 40V714c0 22.092 17.908 40 40 40h752c22.092 0 40-17.908 40-40v-588c0-22.092-17.908-40-40-40h-133.142l21.35-130.778a20 20 0 0 0 0.26-3.222c0-11.046-8.952-20-20-20H697a20 20 0 0 0-19.74 16.778L654.86 86H369.14zM424 513.268v-188.804c0-11.046 8.954-20 20-20a20 20 0 0 1 9.922 2.634l163.924 93.672c9.59 5.48 12.922 17.696 7.442 27.288a20 20 0 0 1-7.326 7.374l-163.924 95.134c-9.552 5.546-21.792 2.296-27.336-7.26a20 20 0 0 1-2.702-10.038z"  horiz-adv-x="1024" />

    
    <glyph glyph-name="kecheng" unicode="&#58917;" d="M369.142 86l-22.402-137.222A20 20 0 0 0 327-68h-59.47c-11.046 0-20 8.954-20 20a20 20 0 0 0 0.26 3.222L269.144 86H136c-22.092 0-40 17.908-40 40V714c0 22.092 17.908 40 40 40h752c22.092 0 40-17.908 40-40v-588c0-22.092-17.908-40-40-40h-133.142l21.35-130.778a20 20 0 0 0 0.26-3.222c0-11.046-8.952-20-20-20H697a20 20 0 0 0-19.74 16.778L654.86 86H369.14z"  horiz-adv-x="1024" />

    
    <glyph glyph-name="wode-pressed" unicode="&#58918;" d="M616.096 374.77h-0.152C614.244 326.55999999999995 574.624 288 526 288s-88.242 38.56-89.944 86.77h-0.106c0.048 0.564 0.072 1.136 0.072 1.714 0 11.046-8.954 20-20 20-11.044 0-20-8.954-20-20 0-0.578 0.026-1.15 0.074-1.714h-0.056C397.754 304.466 455.28 248 526 248c70.718 0 128.246 56.466 129.96 126.77h-0.01c0.048 0.564 0.072 1.136 0.072 1.714 0 11.046-8.954 20-20 20-11.044 0-20-8.954-20-20 0-0.578 0.026-1.15 0.074-1.714zM405.156 144.10000000000002C277.038 192.832 186 316.784 186 462c0 187.776 152.224 340 340 340s340-152.224 340-340c0-145.4-91.27-269.482-219.642-318.082 60.434-37.2 102.358-101.488 108.782-175.908A18.426 18.426 0 0 0 736.782-52H314.396a18.396 18.396 0 0 0-18.328 19.974c6.426 74.558 48.48 138.95 109.088 176.128z"  horiz-adv-x="1024" />

    
    <glyph glyph-name="jiahao" unicode="&#59006;" d="M488 408H260c-13.254 0-24-10.746-24-24s10.746-24 24-24h228v-228c0-13.254 10.746-24 24-24s24 10.746 24 24V360h228c13.254 0 24 10.746 24 24s-10.746 24-24 24H536V636c0 13.254-10.746 24-24 24s-24-10.746-24-24v-228z"  horiz-adv-x="1024" />

    
    <glyph glyph-name="jinrucopy" unicode="&#59007;" d="M651.68 384.378L425.032 157.726c-9.374-9.372-9.374-24.568 0-33.94 9.372-9.374 24.568-9.374 33.94 0l243.246 243.244a23.93 23.93 0 0 1 7.026 17.348 23.93 23.93 0 0 1-7.026 17.348L458.97 644.97c-9.372 9.374-24.568 9.374-33.94 0-9.374-9.372-9.374-24.568 0-33.94L651.68 384.378z"  horiz-adv-x="1024" />

    
    <glyph glyph-name="qingchuguanbi" unicode="&#59008;" d="M512 417.94l-161.22 161.22c-9.372 9.374-24.568 9.374-33.94 0-9.374-9.372-9.374-24.568 0-33.94L478.06 384l-161.22-161.22c-9.374-9.372-9.374-24.568 0-33.94 9.372-9.374 24.568-9.374 33.94 0L512 350.06l161.22-161.22c9.372-9.374 24.568-9.374 33.94 0 9.374 9.372 9.374 24.568 0 33.94L545.94 384l161.22 161.22c9.374 9.372 9.374 24.568 0 33.94-9.372 9.374-24.568 9.374-33.94 0L512 417.94z"  horiz-adv-x="1024" />

    
    <glyph glyph-name="shouqi" unicode="&#59009;" d="M513.376 245.94l153.654 153.654c9.372 9.372 24.568 9.372 33.94 0 9.374-9.372 9.374-24.568 0-33.94l-170.624-170.624c-9.372-9.374-24.568-9.374-33.94 0l-171.194 171.192c-9.372 9.374-9.372 24.568 0 33.94 9.374 9.374 24.57 9.374 33.942 0l154.222-154.22z m-154.222 326.224l154.222-154.222 153.654 153.652c9.372 9.372 24.568 9.372 33.94 0 9.374-9.372 9.374-24.568 0-33.94l-170.624-170.624c-9.372-9.374-24.568-9.374-33.94 0l-171.194 171.192c-9.372 9.374-9.372 24.568 0 33.94 9.374 9.374 24.57 9.374 33.942 0z"  horiz-adv-x="1024" />

    
    <glyph glyph-name="zhankai" unicode="&#59010;" d="M512.808 521.252l-153.654-153.654c-9.372-9.372-24.568-9.372-33.94 0-9.374 9.374-9.374 24.57 0 33.942l170.622 170.624c9.374 9.372 24.568 9.372 33.94 0l171.194-171.194c9.374-9.372 9.374-24.568 0-33.94-9.372-9.374-24.568-9.374-33.94 0l-154.222 154.22z m154.22-326.222l-154.22 154.22-153.654-153.652c-9.372-9.372-24.568-9.372-33.94 0-9.374 9.374-9.374 24.57 0 33.942l170.622 170.624c9.374 9.372 24.568 9.372 33.94 0l171.194-171.194c9.374-9.372 9.374-24.568 0-33.94-9.372-9.374-24.568-9.374-33.94 0z"  horiz-adv-x="1024" />

    
    <glyph glyph-name="diandiandian" unicode="&#59001;" d="M512 562c-26.51 0-48 21.49-48 48s21.49 48 48 48 48-21.49 48-48-21.49-48-48-48z m0-226c-26.51 0-48 21.49-48 48s21.49 48 48 48 48-21.49 48-48-21.49-48-48-48z m0-226c-26.51 0-48 21.49-48 48s21.49 48 48 48 48-21.49 48-48-21.49-48-48-48z"  horiz-adv-x="1024" />

    
    <glyph glyph-name="biaojiyidu" unicode="&#59002;" d="M116.24 374.638c-0.268 0.776-0.24 0.634-0.24-0.638s-0.028-1.414 0.24-0.638c0.072 0.206 0.15 0.42 0.232 0.638-0.082 0.22-0.16 0.432-0.23 0.638z m4.46 7.92c5.344 9.208 13.886 20.458 25.142 32.848 24.524 26.994 59.486 56.828 99.242 84.238C336.076 562.378 435.334 602 512 602c58.38 0 130.006-22.8 203.052-62.91C779.946 503.456 657.058 650 512 650c-192.43 0-444-203.57-444-276s251.57-276 444-276v48c-76.666 0-175.924 39.62-266.916 102.356-39.756 27.41-74.718 57.244-99.24 84.24-11.258 12.388-19.8 23.64-25.146 32.846-1.986 3.422-3.39 6.326-4.226 8.558 0.836 2.232 2.24 5.136 4.226 8.56z m-4.46-7.92c-0.268 0.776-0.24 0.634-0.24-0.638s-0.028-1.414 0.24-0.638c0.072 0.206 0.15 0.42 0.232 0.638-0.082 0.22-0.16 0.432-0.23 0.638z m4.46 7.92c5.344 9.208 13.886 20.458 25.142 32.848 24.524 26.994 59.486 56.828 99.242 84.238C336.076 562.378 435.334 602 512 602c58.38 0 130.006-22.8 203.052-62.91 61.788-33.928 119.942-77.984 157.948-118.126 1.912-2.018 36.7 31.068 33.95 33.95C824.26 541.646 652.39 650 512 650c-192.43 0-444-203.57-444-276s251.57-276 444-276v48c-76.666 0-175.924 39.62-266.916 102.356-39.756 27.41-74.718 57.244-99.24 84.24-11.258 12.388-19.8 23.64-25.146 32.846-1.986 3.422-3.39 6.326-4.226 8.558 0.836 2.232 2.24 5.136 4.226 8.56zM890 414c13.254 0 24 10.746 24 24s-10.746 24-24 24-24-10.746-24-24 10.746-24 24-24zM672.784 153.722l244.066 244.066c9.372 9.372 24.568 9.372 33.94 0l1.416-1.414c9.372-9.374 9.372-24.57 0-33.94l-262.22-262.22c-8.43-8.43-21.568-9.28-30.946-2.548a24.068 24.068 0 0 0-4.376 3.466l-96.38 96.38c-9.374 9.374-9.374 24.57 0 33.942l1.414 1.414c9.372 9.372 24.568 9.372 33.94 0l79.146-79.146zM512 98c-13.254 0-24 10.746-24 24s10.746 24 24 24 24-10.746 24-24-10.746-24-24-24z m0 142c-74.006 0-134 59.994-134 134s59.994 134 134 134 134-59.994 134-134-59.994-134-134-134z m0 48c47.496 0 86 38.504 86 86s-38.504 86-86 86-86-38.504-86-86 38.504-86 86-86z"  horiz-adv-x="1024" />

    
    <glyph glyph-name="bianji" unicode="&#59003;" d="M617.654 642.404L134.934 159.686a16 16 0 0 1-4.65-10.244L119.6-9.932l157.74 12.01a16 16 0 0 1 10.1 4.64l482.95 482.952-152.734 152.734z m33.94 33.942l152.736-152.734 74.458 74.456a16 16 0 0 1 0 22.628L748.68 750.804a16 16 0 0 1-22.628 0l-74.456-74.458zM484-18h452c13.254 0 24-10.746 24-24s-10.746-24-24-24H484c-13.254 0-24 10.746-24 24s10.746 24 24 24zM100.994 193.628L692.112 784.746c24.994 24.992 65.516 24.992 90.51 0l130.108-130.108c24.992-24.994 24.992-65.516 0-90.51L321.378-27.224a64 64 0 0 0-40.396-18.56L68-62l14.392 214.654a64 64 0 0 0 18.602 40.974z"  horiz-adv-x="1024" />

    
    <glyph glyph-name="kuangxuanzhong" unicode="&#59004;" d="M462.736 229.206l-147.766 147.764c-9.372 9.374-24.568 9.374-33.94 0-9.374-9.372-9.374-24.568 0-33.94l159.78-159.78a23.998 23.998 0 0 1 4.22-5.69c9.372-9.374 24.568-9.374 33.94 0L784.44 483.03c9.374 9.372 9.374 24.568 0 33.94-9.372 9.374-24.568 9.374-33.94 0L462.736 229.206zM128 832h768c35.346 0 64-28.654 64-64v-768c0-35.346-28.654-64-64-64H128c-35.346 0-64 28.654-64 64V768c0 35.346 28.654 64 64 64z"  horiz-adv-x="1024" />

    
    <glyph glyph-name="kuang" unicode="&#59005;" d="M128 784a16 16 0 0 1-16-16v-768a16 16 0 0 1 16-16h768a16 16 0 0 1 16 16V768a16 16 0 0 1-16 16H128z m0 48h768c35.346 0 64-28.654 64-64v-768c0-35.346-28.654-64-64-64H128c-35.346 0-64 28.654-64 64V768c0 35.346 28.654 64 64 64z"  horiz-adv-x="1024" />

    
    <glyph glyph-name="shezhi" unicode="&#59011;" d="M382.108-23.84a64 64 0 0 0-64.69 0.684l-55.294 33.176a64 64 0 0 0-31.068 54.114c-0.74 61.886-8.828 108.264-24.262 139.134-17.358 28.928-52.66 59.486-105.906 91.678A64 64 0 0 0 70 349.714v69.61a64 64 0 0 0 30.888 54.768c53.248 32.192 88.548 62.75 105.906 91.68 15.434 30.868 23.52 77.246 24.262 139.132a64 64 0 0 0 31.068 54.114l55.294 33.176a64 64 0 0 0 64.69 0.684c53.476-30.57 96.494-45.856 129.052-45.856 34.264 0 77.268 15.1 129.014 45.296a64 64 0 0 0 65.184-0.398l53.946-32.368a64 64 0 0 0 31.07-55.486c-0.6-63.25 7.784-109.348 25.152-138.296 17.358-28.928 52.66-59.486 105.906-91.678a64 64 0 0 0 30.888-54.768v-69.61a64 64 0 0 0-30.888-54.768c-53.246-32.192-88.548-62.75-105.906-91.68-15.434-30.868-23.52-77.246-24.262-139.132a64 64 0 0 0-31.068-54.114l-54.838-32.902a64 64 0 0 0-65.184-0.398c-51.746 30.198-94.75 45.296-129.014 45.296-32.56 0-75.576-15.286-129.052-45.854z m129.052 93.856c44.246 0 94.78-17.742 153.206-51.838a16 16 0 0 1 16.296 0.1l54.84 32.9a16 16 0 0 1 7.766 13.53c0.82 68.498 10.06 121.496 29.326 160.026a48 48 0 0 0 1.774 3.228c22.15 36.918 62.89 72.186 122.23 108.06a16 16 0 0 1 7.722 13.692v69.61a16 16 0 0 1-7.72 13.692c-59.342 35.876-100.082 71.142-122.232 108.06-22.828 38.044-32.668 92.146-31.992 163.446a16 16 0 0 1-7.766 13.872L680.66 750.76a16 16 0 0 1-16.296 0.1c-58.428-34.098-108.96-51.84-153.206-51.84-42.59 0-92.796 17.84-152.874 52.184a16 16 0 0 1-16.172-0.172L286.82 717.86a16 16 0 0 1-7.766-13.528c-0.82-68.498-10.062-121.496-29.328-160.026a48 48 0 0 0-1.772-3.228c-22.15-36.918-62.89-72.184-122.232-108.06A16 16 0 0 1 118 419.324v-69.61a16 16 0 0 1 7.722-13.692c59.34-35.874 100.08-71.142 122.232-108.06a48 48 0 0 0 1.772-3.228c19.266-38.53 28.508-91.528 29.328-160.026a16 16 0 0 1 7.766-13.528l55.294-33.176a16 16 0 0 1 16.172-0.172c60.078 34.344 110.284 52.184 152.874 52.184zM512 224c-87.62 0-160 72.38-160 160s72.38 160 160 160 160-72.38 160-160-72.38-160-160-160z m0 48c61.11 0 112 50.89 112 112s-50.89 112-112 112-112-50.89-112-112 50.89-112 112-112z"  horiz-adv-x="1024" />

    
    <glyph glyph-name="bofang" unicode="&#59012;" d="M512-16c220.914 0 400 179.086 400 400S732.914 784 512 784 112 604.914 112 384s179.086-400 400-400z m0-48C264.576-64 64 136.576 64 384S264.576 832 512 832s448-200.576 448-448-200.576-448-448-448z m155.906 420.774l-195.572-136.724c-14.484-10.126-34.434-6.592-44.56 7.892A32 32 0 0 0 422 246.28V519.724c0 17.672 14.326 32 32 32a32 32 0 0 0 18.334-5.774l195.572-136.722c14.484-10.128 18.018-30.078 7.892-44.562a32 32 0 0 0-7.892-7.892z"  horiz-adv-x="1024" />

    
    <glyph glyph-name="zanactive" unicode="&#59013;" d="M806-64H150a64 64 0 0 0-64 64V420a64 64 0 0 0 64 64h114q83.42 212.46 101.12 253.4C392.88 801.78 416 832.32 461.16 832c163.7-1.18 147.3-182.1 139.74-228.88s-16.78-71.42-23.32-98H843a96 96 0 0 0 94.64-112l-68.46-403.82A64 64 0 0 0 806-64zM250 436v-452h48V436z"  horiz-adv-x="1024" />

    
    <glyph glyph-name="zannormal" unicode="&#59014;" d="M821.854-2.676l68.474 403.71a48 48 0 0 1 0.676 8.026c0 26.51-21.492 48-48 48h-326.64l14.606 59.452c0.584 2.38 1.2 4.8 1.862 7.316 0.62 2.36 9.652 34.65 12.282 45.35 3.238 13.172 5.968 26.48 8.412 41.606 5.7 35.266 5.774 76.812-4.226 110.04-12.592 41.83-37.69 62.81-88.476 63.174-8.942 0.066-13.416-1.848-19.424-8.15-9.076-9.524-19.192-27.28-32.22-57.474-11.478-26.572-45.148-110.956-100.5-251.92L296.72 436H150a16 16 0 0 1-16-16v-420a16 16 0 0 1 16-16h656.08a16 16 0 0 1 15.774 13.324zM578 505.06h265.004c53.02 0 96-42.98 96-96a96 96 0 0 0-1.352-16.052l-68.474-403.71C863.958-41.48 837.294-64 806.078-64H150c-35.346 0-64 28.654-64 64V420c0 35.346 28.654 64 64 64h114c55.62 141.64 89.324 226.112 101.118 253.41 27.772 64.37 50.974 94.912 96.05 94.588 163.702-1.18 147.3-182.102 139.744-228.872-3.258-20.152-6.822-36.198-10.35-50.066l-12.562-48zM248 436h48v-452h-48V436z"  horiz-adv-x="1024" />

    
    <glyph glyph-name="xiaoxi1" unicode="&#59015;" d="M239.76 35.57a3202.94 3202.94 0 0 0 11.644 3.824c29.036 9.464 49.444 15.408 68.648 19.506 28.26 6.032 51.024 7.39 71.532 1.664 38.594-10.78 79.056-16.328 120.416-16.328 222.006 0 400 159.67 400 353.88C912 592.332 734.006 752 512 752S112 592.33 112 398.118c0-77.118 27.958-150.54 79.19-211.29 10.176-12.068 14.606-26 15.806-41.49 0.76-9.784 0.174-20.204-1.452-31.994-2.196-15.92-5.08-28.946-12.86-60.864-3.818-15.664-6.27-26.136-8.01-34.494 10.66 2.992 24.144 7.37 55.084 17.584zM512-3.764c-46.43 0-91.21 6.336-133.326 18.096-53.664 14.986-208.936-68.072-238.25-47.084-29.314 20.986 36.714 161.786 14.072 188.634C97.694 223.24 64 307.148 64 398.12 64 620.072 264.576 800 512 800s448-179.928 448-401.882-200.576-401.882-448-401.882z"  horiz-adv-x="1024" />

    
    <glyph glyph-name="bianjishezhi" unicode="&#59016;" d="M233.988 97.176l485.98 485.98-94.57 94.572L139.65 191.98l-6.86-102.498 101.2 7.694z m-142.336 137.316L587.44 730.28c20.964 20.964 54.956 20.96 75.922-0.008l109.15-109.15c20.968-20.968 20.972-54.96 0.01-75.922L276.538 49.216a53.672 53.672 0 0 0-33.884-15.566L64 20.068l12.052 180.056a53.672 53.672 0 0 0 15.6 34.368zM396 84h532c17.674 0 32-14.326 32-32s-14.326-32-32-32H396c-17.674 0-32 14.326-32 32s14.326 32 32 32z m196 128h336c17.674 0 32-14.326 32-32s-14.326-32-32-32H592c-17.674 0-32 14.326-32 32s14.326 32 32 32z m172 128h164c17.674 0 32-14.326 32-32s-14.326-32-32-32h-164c-17.674 0-32 14.326-32 32s14.326 32 32 32zM561.766 620.488l111.722-111.722c12.498-12.496 12.498-32.758 0-45.254-12.496-12.498-32.758-12.498-45.254 0l-111.722 111.722c-12.498 12.496-12.498 32.758 0 45.254 12.496 12.498 32.758 12.498 45.254 0z"  horiz-adv-x="1024" />

    
    <glyph glyph-name="taolun" unicode="&#59017;" d="M700.9 423.494h-0.01 0.01z m21.094 64.49a203.46 203.46 0 0 1-13.69 44.426c-24.86 56.752-66.288 99.486-125.676 130.78-38.768 20.432-80.656 32.324-126.068 35.954-2.46 0.1-4.256 0.166-6.334 0.236-4.59 0.152-10.1 0.3-15.54 0.41-12.44 0.254-22.966 0.276-26.536 0.08-11.646-0.648-28.776-2.53-41.27-4.646-32.86-5.564-63.54-15.68-92.044-30.432-60.72-31.432-102.988-74.396-128.468-131.838-10.06-22.682-15.924-48.114-18.086-77.368-0.84-11.36 0.154-24.434 3.132-43.284 4.322-27.36 13.71-53.182 28.264-77.938 18.998-32.314 44.582-59.604 77.082-82.506 20.678-14.56 31.278-36.58 31.236-60.66-0.032-13.144-0.052-25.17-0.064-38.676 20.856 12.838 37.058 22.79 55.24 33.934 13.994 8.578 30.708 12.354 46.68 10.986 5.918-0.506 10.456-0.974 20.394-2.056l1.812-0.196c11.762-1.28 17.856-1.844 24.15-2.168 23.04-1.188 46.86 0.504 71.514 4.984 1.552 0.28 3.1 0.572 4.64 0.872a206.918 206.918 0 0 0-3.424 8.254c-8.624 22.142-13 45.14-12.938 68.934 0.012 4.528 0.34 9.064 0.654 13.586 1.46 21.018 6.354 41.246 14.792 60.506 21.304 48.64 56.906 83.76 103.4 108.26 31.598 16.652 65.36 26.028 100.948 28.872 2.39 0.192 15.464 0.606 26.2 0.694z m65.948-8.35c18.198-4.664 35.776-11.282 52.614-20 47.3-24.48 83.624-59.68 105.466-108.928 9.33-21.032 13.988-43.216 15.674-66.01 0.958-12.98-0.472-25.94-2.506-38.816-3.79-23.984-12.036-46.332-24.306-67.2-16.21-27.572-37.8-50.18-63.864-68.546-2.1-1.48-2.74-3.012-2.736-5.48 0.078-32.742 0.052-65.486 0.052-98.23V2c-2.404 1.452-4.1 2.456-5.776 3.49-32.136 19.806-64.26 39.638-96.446 59.362-1.454 0.892-3.506 1.34-5.212 1.194-10.832-0.926-21.626-2.5-32.472-3.058-19.372-0.998-38.674 0.508-57.736 3.97-44.14 8.02-84.116 25.424-118.824 54.23a231.446 231.446 0 0 0-21.846 20.61 433.756 433.756 0 0 0-30.864-6.76c-28.474-5.174-57.31-7.424-86.246-5.932-16.204 0.836-32.326 3.186-48.508 4.568-2.548 0.218-5.614-0.452-7.786-1.782-48.08-29.468-96.066-59.092-144.074-88.68-2.504-1.542-5.036-3.044-8.628-5.212v6.608c0 48.914-0.038 97.828 0.078 146.74 0.006 3.686-0.95 5.976-4.086 8.184-38.94 27.44-71.188 61.208-95.404 102.396-18.328 31.174-30.648 64.56-36.308 100.386-3.04 19.238-5.174 38.594-3.742 57.986 2.516 34.05 9.474 67.188 23.412 98.606 32.63 73.566 86.892 126.148 157.548 162.722 34.952 18.092 72.04 30.138 110.78 36.698 15.982 2.708 35.6 4.732 48.406 5.444 12.806 0.71 51.864-0.414 57.064-0.83 53.16-4.248 103.598-18.254 150.8-43.13 69.452-36.6 122.634-89.064 154.46-161.72 11-25.11 17.97-51.32 21.016-78.456z m11.62-360.218l5.592-3.428c2.85 18.36 12.686 34.972 29.014 46.472 19.34 13.628 34.388 29.678 45.544 48.656 8.416 14.314 13.788 29.088 16.26 44.75 1.764 11.152 2.316 18.432 1.896 24.116-1.276 17.28-4.658 31.946-10.348 44.772-15.034 33.898-39.872 59.144-76.384 78.044-17.108 8.856-35.556 14.938-55.424 18.302-7.566 1.28-18.246 2.454-25.266 2.844-1.67 0.094-8.38 0.08-16.16-0.08-3.554-0.072-7.15-0.168-10.13-0.268-1.324-0.044-2.456-0.086-3.776-0.144-27.38-2.252-52.466-9.41-75.698-21.652-35.644-18.784-59.96-43.866-74.614-77.32-5.43-12.4-8.608-25.426-9.608-39.844-0.252-3.612-0.344-5.108-0.408-6.66-0.034-0.82-0.05-1.504-0.052-2.078-0.04-15.634 2.798-30.706 8.574-45.536 9.008-23.126 23.532-42.8 44.168-59.926 25.192-20.908 54.656-34.2 89.392-40.508 14.94-2.714 29.26-3.732 43-3.024 3.7 0.19 7.476 0.54 14.972 1.356l1.208 0.13c6.816 0.742 9.962 1.066 14.144 1.424 15.114 1.294 30.818-2.254 44.104-10.398z"  horiz-adv-x="1024" />

    
    <glyph glyph-name="xiti" unicode="&#59018;" d="M896 676.464c-2.43 2.546-4.926 3.536-8 3.536H136c-3.074 0-5.57-0.99-7.14-2.46-0.31-0.292-0.596-195.626-0.86-586.004 2.43-2.546 4.926-3.536 8-3.536h752c3.074 0 5.57 0.99 7.14 2.46 0.31 0.292 0.596 195.626 0.86 586.004z m64 0.036v-585c0-37.28-32.236-67.5-72-67.5H136c-39.764 0-72 30.22-72 67.5V676.5C64 713.78 96.236 744 136 744h752c39.764 0 72-30.22 72-67.5zM344 354l304 0 0-64-304 0 0 64ZM344 242l304 0 0-64-304 0 0 64ZM206 554l614 0 0-64-614 0 0 64ZM256 322m-32 0a32 32 0 1 1 64 0 32 32 0 1 1-64 0ZM256 210m-32 0a32 32 0 1 1 64 0 32 32 0 1 1-64 0Z"  horiz-adv-x="1024" />

    
    <glyph glyph-name="xuesheng" unicode="&#59019;" d="M268 341.034v-201.504c82.764-51.416 163.77-76.564 243.8-76.564 80.052 0 161.198 25.162 244.2 76.61V340.52l-206.22-82.294a96 96 0 0 0-70.71-0.18L268 341.034zM247.71 417.78l254.78-100.176a32 32 0 0 1 23.57 0.06l250.08 99.8c16.414 6.55 35.03-1.446 41.58-17.86a32 32 0 0 0 2.28-11.86v-265.716a32 32 0 0 0-14.468-26.77c-98.02-64.194-195.932-96.292-293.734-96.292-97.8 0-195.586 32.096-293.36 96.288A32 32 0 0 0 204 122.004V388c0 17.674 14.326 32 32 32a32 32 0 0 0 11.71-2.22zM846 564l64 0 0-226-64 0 0 226ZM878 274m-32 0a32 32 0 1 1 64 0 32 32 0 1 1-64 0ZM512 703.684L184.46 576.48 512 449.272l327.54 127.206L512 703.684z m11.584 64.16l415.932-161.536c16.474-6.4 24.642-24.94 18.244-41.414a32 32 0 0 0-18.244-18.246l-415.932-161.534a32 32 0 0 0-23.168 0L84.484 546.648c-16.474 6.4-24.642 24.94-18.244 41.416a32 32 0 0 0 18.244 18.244L500.416 767.84a32 32 0 0 0 23.168 0z"  horiz-adv-x="1024" />

    
    <glyph glyph-name="tongxue" unicode="&#59020;" d="M484.704 354.296C418.488 392.966 374 464.788 374 547 374 670.16 473.84 770 597 770S820 670.16 820 547c0-82.212-44.488-154.034-110.704-192.704C854.812 307.004 960 170.286 960 9c-0.006-0.332 0 19.334 0 19 0-17.674-14.326-32-32-32s-32 14.326-32 32c0 0.334 0.006-19.332 0.016-19C896 174.134 762.134 308 597 308 431.866 308 298 174.134 298 9c-0.006-0.332 0 19.334 0 19 0-17.674-14.326-32-32-32s-32 14.326-32 32c0 0.334 0.006-19.332 0.016-19-0.016 161.286 105.172 298.004 250.688 345.296zM597 388c87.814 0 159 71.186 159 159S684.814 706 597 706 438 634.814 438 547s71.186-159 159-159zM363 417.994c0.666 0.004 1.332 0.006 2 0.006v-0.016c0.332 0.01 0.666 0.016 1 0.016 17.674 0 32-14.326 32-32s-14.326-32-32-32c-0.334 0-0.668 0.006-1 0.016V354C234.156 354 128 247.492 128 116c0-17.674-14.326-32-32-32s-32 14.326-32 32c0 125.074 75.78 232.388 183.788 278.246C205.258 428.142 178 480.386 178 539c0 102.172 82.828 185 185 185v-0.016c0.332 0.01 0.666 0.016 1 0.016 17.674 0 32-14.326 32-32s-14.326-32-32-32c-0.334 0-0.668 0.006-1 0.016V660c-66.826 0-121-54.174-121-121s54.174-121 121-121v-0.006z"  horiz-adv-x="1024" />

    
    <glyph glyph-name="renwu" unicode="&#59021;" d="M788 723h101c39.764 0 72-29.38 72-65.626v-568.75c0-36.242-32.236-65.624-72-65.624h-752c-39.764 0-72 29.38-72 65.626V657.374c0 36.242 32.236 65.624 72 65.624H236V758c0 17.674 14.326 32 32 32s32-14.326 32-32v-35h424V758c0 17.674 14.326 32 32 32s32-14.326 32-32v-35z m0-64V622c0-17.674-14.326-32-32-32s-32 14.326-32 32v37H300V622c0-17.674-14.326-32-32-32s-32 14.326-32 32v37H137c-3.442 0-6.2-1.062-7.8-2.52-0.05-0.048-0.118-188.97-0.2-566.768 1.8-1.65 4.558-2.712 8-2.712h752c3.442 0 6.2 1.062 7.8 2.52 0.05 0.048 0.118 188.97 0.2 566.768-1.8 1.65-4.558 2.712-8 2.712H788z m-75.824-160.372c12.496 12.496 32.758 12.496 45.254 0 12.498-12.498 12.498-32.76 0-45.256l-262.1-262.1c-12.886-12.886-33.918-12.426-46.226 1.014l-166.702 182.02c-11.936 13.034-11.048 33.276 1.986 45.212 13.032 11.936 33.274 11.048 45.21-1.986l144.12-157.362 238.458 238.458z"  horiz-adv-x="1024" />

    
    <glyph glyph-name="quanbubiaojiyidu" unicode="&#59022;" d="M258.584 128.102l536.272 536.86c9.368 9.376 24.564 9.386 33.94 0.018 9.38-9.368 9.386-24.564 0.02-33.94l-553.2-553.806c-9.356-9.366-24.526-9.388-33.908-0.052l-166.636 165.796c-9.396 9.35-9.434 24.546-0.086 33.942 9.35 9.396 24.546 9.434 33.94 0.086l149.658-148.904zM650.244 246c-13.254 0-24 10.746-24 24s10.746 24 24 24H932c13.254 0 24-10.746 24-24s-10.746-24-24-24H650.246zM772 420c-13.254 0-24 10.746-24 24s10.746 24 24 24h160c13.254 0 24-10.746 24-24s-10.746-24-24-24h-160zM533.992 74c-13.256 0-24 10.746-24 24s10.744 24 24 24H932c13.254 0 24-10.746 24-24s-10.746-24-24-24H533.992z"  horiz-adv-x="1024" />

    
    <glyph glyph-name="jiahao1" unicode="&#59023;" d="M699.586 540.084c9.41 9.336 24.606 9.274 33.94-0.136 9.336-9.41 9.274-24.606-0.136-33.94L417.414 192.56c-9.342-9.268-24.408-9.284-33.77-0.034l-132.512 130.926c-9.428 9.316-9.52 24.512-0.204 33.94 9.316 9.428 24.512 9.52 33.94 0.204l115.61-114.226 299.108 296.712z"  horiz-adv-x="1024" />

    
    <glyph glyph-name="tianjiatupian-" unicode="&#59024;" d="M836 648V700a24 24 0 0 0 48 0v-52h52a24 24 0 0 0 0-48h-52v-52a24 24 0 0 0-48 0v52h-52a24 24 0 0 0 0 48zM258 384a70 70 0 1 0 70 70 70 70 0 0 0-70-70zM704.68 694a24 24 0 0 0 0-48H160a48 48 0 0 1-48-48v-514a48 48 0 0 1 48-48h624a48 48 0 0 1 48 48V432.26a70.58 70.58 0 0 1-8.96 6.84c-14.44 9.48-35.06 17.7-57.02 22-51.5 10.3-96.32-1.4-123.4-36.24a300 300 0 0 1-37.78-61.58c-3.4-7.56-6.32-14.84-9.62-23.86-0.62-1.68-1.24-3.4-2-5.62-0.12-0.3-1.58-4.4-2-5.58-1.7-4.74-2.92-8-4.22-11.36a120.52 120.52 0 0 0-14-26.92 78.82 78.82 0 0 0-30.32-25.84c-20.78-10-44-11.08-77.2-6.54-71.24 9.74-174.36-36.58-243.46-104.38l-1.84-1.32a24 24 0 0 0-31.7 35.64c69.62 68.28 187.18 130.78 283.5 117.62s44.52 35.8 132.72 149.22S880 489.16 880 440.66V84a96 96 0 0 0-96-96H160a96 96 0 0 0-96 96V598a96 96 0 0 0 96 96z"  horiz-adv-x="1024" />

    
    <glyph glyph-name="kejiankejianqiehuan" unicode="&#58887;" d="M366.276 220.006l43.368-43.368c12.496-12.498 12.496-32.76 0-45.256-12.496-12.496-32.758-12.496-45.254 0L275.6 220.172c-18.134 18.134-18.134 47.532 0 65.666l88.79 88.79c12.496 12.496 32.758 12.496 45.254 0 12.496-12.498 12.496-32.76 0-45.256l-45.368-45.366h363.74c17.674 0 32-14.328 32-32 0-17.674-14.326-32-32-32h-361.74z m291.464 326l-45.368 45.366c-12.496 12.498-12.496 32.76 0 45.256 12.498 12.496 32.76 12.496 45.256 0l88.788-88.79c18.134-18.134 18.134-47.532 0-65.666l-88.788-88.79c-12.498-12.496-32.76-12.496-45.256 0-12.496 12.498-12.496 32.76 0 45.256l43.368 43.368H294c-17.674 0-32 14.326-32 32 0 17.672 14.326 32 32 32h363.74z"  horiz-adv-x="1024" />

    
    <glyph glyph-name="fenzu" unicode="&#59025;" d="M723.01 86v64H894a4 4 0 0 1 4 4V718a4 4 0 0 1-4 4H330a4 4 0 0 1-4-4v-79.796h-64V718c0 37.556 30.444 68 68 68h564c37.556 0 68-30.444 68-68v-564c0-37.556-30.444-68-68-68h-170.99z m40 0v64H894a4 4 0 0 1 4 4V718a4 4 0 0 1-4 4H330a4 4 0 0 1-4-4v-39.796h-64V718c0 37.556 30.444 68 68 68h564c37.556 0 68-30.444 68-68v-564c0-37.556-30.444-68-68-68h-130.99zM132 662h544c37.556 0 68-30.444 68-68v-544c0-37.556-30.444-68-68-68H132c-37.556 0-68 30.444-68 68V594c0 37.556 30.444 68 68 68z m0-64a4 4 0 0 1-4-4v-544a4 4 0 0 1 4-4h544a4 4 0 0 1 4 4V594a4 4 0 0 1-4 4H132z"  horiz-adv-x="1024" />

    
    <glyph glyph-name="yuankuang" unicode="&#59026;" d="M512-16c220.914 0 400 179.086 400 400S732.914 784 512 784 112 604.914 112 384s179.086-400 400-400z m0-48C264.576-64 64 136.576 64 384S264.576 832 512 832s448-200.576 448-448-200.576-448-448-448z"  horiz-adv-x="1024" />

    
    <glyph glyph-name="yuankuangxuanzhong" unicode="&#59027;" d="M512-64C264.576-64 64 136.576 64 384S264.576 832 512 832s448-200.576 448-448-200.576-448-448-448z m-49.264 293.206l-147.766 147.764c-9.372 9.374-24.568 9.374-33.94 0-9.374-9.372-9.374-24.568 0-33.94l159.78-159.78a23.998 23.998 0 0 1 4.22-5.69c9.372-9.374 24.568-9.374 33.94 0L784.44 483.03c9.374 9.372 9.374 24.568 0 33.94-9.372 9.374-24.568 9.374-33.94 0L462.736 229.206z"  horiz-adv-x="1024" />

    
    <glyph glyph-name="sousuo" unicode="&#59028;" d="M658.958 203.056C599.014 150.12 520.258 118 434 118c-187.776 0-340 152.224-340 340S246.224 798 434 798s340-152.224 340-340c0-84.242-30.638-161.328-81.38-220.724l133.4-134.16c9.344-9.4 9.3-24.594-0.098-33.94-9.4-9.346-24.594-9.302-33.94 0.096l-133.024 133.784zM434 166c161.268 0 292 130.732 292 292S595.268 750 434 750 142 619.268 142 458s130.732-292 292-292z"  horiz-adv-x="1024" />

    
    <glyph glyph-name="kejianjie" unicode="&#59029;" d="M871.904 622.618H245.73c-37.76 0-68.176 30.416-68.176 68.176 0 37.76 30.94 68.176 68.176 68.176H871.38c18.356 0 32.516 14.684 32.516 32.516 0 17.83-14.686 32.514-32.516 32.514H245.73C171.786 824 112 764.214 112 690.27c0-6.82 0.524-13.636 1.574-20.454v-625.65c-0.876-7.36-1.314-19.418-1.312-36.174 0.004-35.344 28.658-63.992 64-63.992H849.334c35.348 0 64 28.654 64 64V581.188c0 22.88-18.548 41.43-41.43 41.43z m-167.294-65.554v-264.84L649.02 360.4c-9.964 12.062-24.124 18.88-39.856 18.356-15.734 0-29.894-7.342-39.334-19.928l-46.674-61.884v260.12h181.454zM179.128 10.078V574.894c19.928-11.538 42.48-17.83 66.602-17.83h211.872v-354.52c0-14.682 9.44-27.268 23.074-31.988 13.636-4.72 28.844 0 37.76 11.536l91.776 121.67 99.642-122.718c6.294-7.866 16.258-12.586 26.222-12.586 3.672 0 7.342 0.524 11.014 2.098 13.634 4.72 22.55 17.306 22.55 31.99V557.064h77.616v-514.47c0.16-4.808 0.16-15.648 0-32.516H179.128z"  horiz-adv-x="1024" />

    
    <glyph glyph-name="fenzu1" unicode="&#59030;" d="M480 416v56h-128c-35.4 0-64 28.6-64 64v144c0 35.4 28.6 64 64 64h320c35.4 0 64-28.6 64-64v-144c0-35.4-28.6-64-64-64h-128v-56h184c53 0 96-43 96-96v-24h72c35.4 0 64-28.6 64-64v-144c0-35.4-28.6-64-64-64H664c-35.4 0-64 28.6-64 64v144c0 35.4 28.6 64 64 64h96v24c0 17.6-14.4 32-32 32H296c-17.6 0-32-14.4-32-32v-24h96c35.4 0 64-28.6 64-64v-144c0-35.4-28.6-64-64-64H128c-35.4 0-64 28.6-64 64v144c0 35.4 28.6 64 64 64h72v24c0 53 43 96 96 96h184z m-128 264v-144h320v144H352zM128 232v-144h232v144H128z m536 0v-144h232v144H664z"  horiz-adv-x="1024" />

    
    <glyph glyph-name="huping" unicode="&#59048;" d="M682.261333 550.037333l196.458667 195.818667a21.973333 21.973333 0 0 0 30.976 0c8.554667-8.533333 8.554667-22.357333 0-30.890667l-211.946667-211.264c-8.533333-8.533333-22.421333-8.533333-30.976 0l-117.610666 117.226667a21.781333 21.781333 0 0 0 0 30.890667 21.973333 21.973333 0 0 0 30.997333 0l102.101333-101.781334zM669.034667 768l-43.797334-43.072H171.477333c-11.946667 0-21.610667-9.642667-21.610666-21.525333v-638.805334c0-11.882667 9.685333-21.546667 21.610666-21.546666h640.874667c11.946667 0 21.610667 9.664 21.610667 21.546666v451.626667l43.2 42.986667v-494.613334A64.704 64.704 0 0 0 812.373333 0H171.477333A64.704 64.704 0 0 0 106.666667 64.597333V703.402667A64.704 64.704 0 0 0 171.477333 768H669.013333zM254.293333 401.941333h475.242667c11.946667 0 21.610667-9.642667 21.610667-21.546666 0-11.882667-9.664-21.525333-21.610667-21.525334H254.293333c-11.946667 0-21.610667 9.642667-21.610666 21.546667 0 11.882667 9.664 21.546667 21.610666 21.546667z m0-172.266666h302.421334c11.946667 0 21.610667-9.642667 21.610666-21.525334 0-11.882667-9.664-21.546667-21.610666-21.546666H254.293333c-11.946667 0-21.610667 9.664-21.610666 21.546666 0 11.882667 9.664 21.546667 21.610666 21.546667z"  horiz-adv-x="1024" />

    
    <glyph glyph-name="shengyinkai" unicode="&#59055;" d="M676.128 834.928c249.024-90.656 377.456-366 286.8-615.056-90.672-249.008-366-377.44-615.056-286.816C98.832 23.68-29.568 299.072 61.072 548.128 151.728 797.184 427.088 925.568 676.112 834.928zM92.16 536.816C7.792 304.912 127.344 48.512 359.184-35.84c231.872-84.384 488.224 35.168 572.64 267.008 84.4 231.872-35.152 488.224-267.024 572.64C432.96 888.208 176.576 768.672 92.16 536.816zM329.808 518.4l156.896 115.68a30.24 30.24 0 0 0 48.192-24.32v-492.656a30.24 30.24 0 0 0-46.768-25.344l-190.288 124.128h-37.776A68.064 68.064 0 0 0 192 283.952V450.336a68.064 68.064 0 0 0 68.064 68.064h69.76z m173.088 87.888L340.336 486.4h-80.272A36.064 36.064 0 0 1 224 450.336v-166.384a36.064 36.064 0 0 1 36.064-36.064h47.296l195.536-127.552V606.288z m74-211.568a16 16 0 0 0 30.208 10.56c6.176-17.68 9.28-35.456 9.28-53.28 0-17.824-3.104-35.6-9.28-53.28a16 16 0 1 0-30.208 10.56 128.912 128.912 0 0 1 7.488 42.72c0 14.176-2.48 28.4-7.488 42.72z m97.056 61.632a16 16 0 0 0 28.096 15.296c18.672-34.272 28.096-68.88 28.096-103.648s-9.424-69.376-28.096-103.648a16 16 0 0 0-28.096 15.296c16.192 29.728 24.192 59.12 24.192 88.352 0 29.232-8 58.624-24.192 88.352z m79.792 96.384a16 16 0 1 0 28.512 14.512c33.68-66.176 50.592-132.64 50.592-199.248s-16.912-133.072-50.592-199.264a16 16 0 0 0-28.512 14.512c31.456 61.824 47.104 123.36 47.104 184.752 0 61.392-15.648 122.928-47.104 184.736z"  horiz-adv-x="1024" />

    
    <glyph glyph-name="shengyinguan" unicode="&#59057;" d="M697.376 368l-84.688 84.688a16 16 0 0 0 22.624 22.624L720 390.624l84.688 84.688a16 16 0 0 0 22.624-22.624L742.624 368l84.688-84.688a16 16 0 0 0-22.624-22.624L720 345.376l-84.688-84.688a16 16 0 0 0-22.624 22.624L697.376 368zM676.128 834.928c249.024-90.656 377.456-366 286.8-615.056-90.672-249.008-366-377.44-615.056-286.816C98.832 23.68-29.568 299.072 61.072 548.128 151.728 797.184 427.088 925.568 676.112 834.928zM92.16 536.816C7.792 304.912 127.344 48.512 359.184-35.84c231.872-84.384 488.224 35.168 572.64 267.008 84.4 231.872-35.152 488.224-267.024 572.64C432.96 888.208 176.576 768.672 92.16 536.816zM329.808 518.4l156.896 115.68a30.24 30.24 0 0 0 48.192-24.32v-492.656a30.24 30.24 0 0 0-46.768-25.344l-190.288 124.128h-37.776A68.064 68.064 0 0 0 192 283.952V450.336a68.064 68.064 0 0 0 68.064 68.064h69.76z m173.088 87.888L340.336 486.4h-80.272A36.064 36.064 0 0 1 224 450.336v-166.384a36.064 36.064 0 0 1 36.064-36.064h47.296l195.536-127.552V606.288z"  horiz-adv-x="1024" />

    
    <glyph glyph-name="jingyin" unicode="&#58888;" d="M152 488v-208H240a24 24 0 0 0 16.16-6.24l135.84-123.52V617.76l-135.84-123.52a24 24 0 0 0-16.16-6.24H152z m78.72-256H128a24 24 0 0 0-24 24v256a24 24 0 0 0 24 24h102.72l169.12 153.76A24 24 0 0 0 440 672v-576a24 24 0 0 0-40.16-17.76L230.72 232zM542.4 580.8l38.4 28.8 316.8-422.4-38.4-28.8zM897.6 580.8l-38.4 28.8-316.8-422.4 38.4-28.8z"  horiz-adv-x="1024" />

    
    <glyph glyph-name="quxiaojingyinx" unicode="&#58894;" d="M153.6 486.4v-208h89.6c6.4 0 12.8-3.2 16-6.4l134.4-124.8V617.6L256 492.8c-3.2-3.2-9.6-6.4-16-6.4H153.6z m76.8-256H128c-12.8 0-25.6 9.6-25.6 25.6v256c0 12.8 9.6 25.6 25.6 25.6h102.4l169.6 153.6c16 12.8 41.6 3.2 41.6-19.2v-576c0-22.4-25.6-32-41.6-19.2l-169.6 153.6zM633.6 384c0 60.8-28.8 112-73.6 147.2l-32-35.2c35.2-25.6 57.6-64 57.6-112 0-44.8-22.4-86.4-57.6-112l35.2-35.2c41.6 35.2 70.4 86.4 70.4 147.2zM793.6 384c0 105.6-48 201.6-124.8 262.4l-32-35.2c67.2-54.4 108.8-137.6 108.8-230.4 0-89.6-41.6-169.6-105.6-224l35.2-35.2c70.4 67.2 118.4 160 118.4 262.4zM953.6 384c0 153.6-67.2 288-172.8 380.8l-32-35.2c96-83.2 160-208 160-345.6 0-134.4-57.6-256-150.4-339.2l35.2-35.2c96 92.8 160 227.2 160 374.4z"  horiz-adv-x="1024" />

    
    <glyph glyph-name="zanting" unicode="&#59058;" d="M512 810.666667C276.394667 810.666667 85.333333 619.626667 85.333333 384s191.04-426.666667 426.666667-426.666667 426.666667 191.04 426.666667 426.666667S747.626667 810.666667 512 810.666667z m0-813.333334C298.453333-2.666667 125.333333 170.453333 125.333333 384S298.453333 770.666667 512 770.666667 898.666667 597.546667 898.666667 384 725.568-2.666667 512-2.666667zM407.552 557.333333c-14.72 0-26.666667-11.946667-26.666667-26.666666v-293.333334a26.666667 26.666667 0 0 1 53.333334 0v293.333334c0 14.72-11.946667 26.666667-26.666667 26.666666zM616.448 557.333333c-14.72 0-26.666667-11.946667-26.666667-26.666666v-293.333334a26.666667 26.666667 0 0 1 53.333334 0v293.333334c0 14.72-11.946667 26.666667-26.666667 26.666666z"  horiz-adv-x="1024" />

    
    <glyph glyph-name="bofang1" unicode="&#59059;" d="M512 810.666667c235.648 0 426.666667-191.018667 426.666667-426.666667s-191.018667-426.666667-426.666667-426.666667S85.333333 148.352 85.333333 384 276.352 810.666667 512 810.666667z m159.125333-463.893334a34.133333 34.133333 0 0 1 0 53.12l-188.885333 152.533334A34.133333 34.133333 0 0 1 426.666667 525.909333v-305.109333a34.133333 34.133333 0 0 1 55.573333-26.56l188.885333 152.554667z"  horiz-adv-x="1024" />

    
    <glyph glyph-name="tab-zhibo" unicode="&#59060;" d="M623.7696 591.291733h195.2256a85.333333 85.333333 0 0 0 85.333333-85.333333v-411.630933a85.333333 85.333333 0 0 0-85.333333-85.333334H205.1584a85.333333 85.333333 0 0 0-85.333333 85.333334v411.648a85.333333 85.333333 0 0 0 85.333333 85.333333h207.240533l-74.581333 119.313067a25.6 25.6 0 1 0 43.434667 27.136l91.511466-146.466134h93.013334l68.334933 128.512a25.6 25.6 0 1 0 45.2096-24.046933l-55.552-104.448z m-102.229333-195.805866c-12.168533 7.304533-24.302933 14.6432-36.437334 21.998933-6.229333 3.754667-12.032 7.253333-17.885866 10.734933a32.085333 32.085333 0 0 1-15.138134 4.130134c-15.598933 0-28.228267-14.455467-28.228266-32.256v-181.896534c0-17.425067 12.117333-30.583467 28.228266-30.583466 5.188267 0 12.117333 4.5056 12.117334 4.5056s11.502933 6.912 18.807466 11.4688c10.581333 6.570667 24.7808 15.36 40.192 24.149333a7448.354133 7448.354133 0 0 1 67.7888 41.540267l0.938667 0.529066c13.994667 8.635733 22.408533 13.841067 25.258667 15.394134 7.901867 4.846933 13.073067 15.274667 13.073066 26.487466-0.085333 11.042133-5.358933 21.469867-13.397333 26.453334-8.055467 5.239467-46.677333 28.672-95.317333 57.344z"  horiz-adv-x="1024" />

    


  </font>
</defs>
</svg>
